<svg width="32" height="32" viewBox="0 0 32 32" fill="none" xmlns="http://www.w3.org/2000/svg">
<g clip-path="url(#clip0_1295_31464)">
<circle cx="16" cy="16" r="16" fill="#2563EB"/>
<g clip-path="url(#clip1_1295_31464)">
<path d="M19.6807 19.6797L22.6807 22.6797" stroke="white" stroke-width="1.5" stroke-linecap="round" stroke-linejoin="round"/>
<path d="M22.6807 22.6797L24.6807 24.6797" stroke="white" stroke-width="3" stroke-linecap="round" stroke-linejoin="round"/>
<path fill-rule="evenodd" clip-rule="evenodd" d="M14.6803 23.6799C19.6508 23.6799 23.6803 19.6504 23.6803 14.6799C23.6803 9.70932 19.6508 5.67988 14.6803 5.67988C9.70971 5.67988 5.68027 9.70932 5.68027 14.6799C5.68027 19.6504 9.70971 23.6799 14.6803 23.6799ZM11.4307 16C11.4307 15.5858 11.0949 15.25 10.6807 15.25C10.2665 15.25 9.93066 15.5858 9.93066 16L9.93066 17.6797C9.93066 18.0939 10.2665 18.4297 10.6807 18.4297C11.0949 18.4297 11.4307 18.0939 11.4307 17.6797L11.4307 16ZM14.6807 12.7498C15.0949 12.7498 15.4307 13.0856 15.4307 13.4998L15.4307 17.6797C15.4307 18.0939 15.0949 18.4297 14.6807 18.4297C14.2665 18.4297 13.9307 18.0939 13.9307 17.6797L13.9307 13.4998C13.9307 13.0856 14.2665 12.7498 14.6807 12.7498ZM19.4307 10.6797C19.4307 10.2655 19.0949 9.92969 18.6807 9.92969C18.2665 9.92969 17.9307 10.2655 17.9307 10.6797L17.9307 17.6797C17.9307 18.0939 18.2665 18.4297 18.6807 18.4297C19.0949 18.4297 19.4307 18.0939 19.4307 17.6797L19.4307 10.6797Z" fill="white"/>
</g>
</g>
<defs>
<clipPath id="clip0_1295_31464">
<rect width="32" height="32" fill="white"/>
</clipPath>
<clipPath id="clip1_1295_31464">
<rect width="24" height="24" fill="white" transform="translate(4 4)"/>
</clipPath>
</defs>
</svg>
