<svg width="32" height="32" viewBox="0 0 32 32" fill="none" xmlns="http://www.w3.org/2000/svg">
<g clip-path="url(#clip0_1208_15454)">
<circle cx="16" cy="16" r="16" fill="#7C3AED"/>
<path d="M10.2134 8.81394L18.216 5.54014C18.7094 5.33829 19.25 5.7012 19.25 6.2343V9.5C19.25 9.91421 18.9142 10.25 18.5 10.25H10.4958C10.0839 10.25 9.75 9.9161 9.75 9.5042C9.75 9.20137 9.93312 8.9286 10.2134 8.81394Z" stroke="white" stroke-width="1.5"/>
<path fill-rule="evenodd" clip-rule="evenodd" d="M9 10C9 9.17157 9.67157 8.5 10.5 8.5H21.5C22.3284 8.5 23 9.17157 23 10V25C23 25.8284 22.3284 26.5 21.5 26.5H10.5C9.67157 26.5 9 25.8284 9 25V10ZM11 16.5C11 15.383 11.3663 14.3515 11.9853 13.5192C12.1667 13.2753 12.3698 13.0485 12.5917 12.8416C13.1949 12.2794 13.9373 11.8646 14.7615 11.6546C15.1575 11.5537 15.5725 11.5 16 11.5C16.4281 11.5 16.8437 11.5538 17.2403 11.655C18.0644 11.8654 18.8065 12.2804 19.4095 12.8428C19.6314 13.0497 19.8344 13.2766 20.0157 13.5205C20.6341 14.3527 21 15.3836 21 16.5C21 17.6167 20.6339 18.6478 20.0153 19.48C19.8339 19.724 19.6309 19.9509 19.409 20.1578C18.8061 20.7199 18.0641 21.1347 17.2403 21.345C16.8437 21.4462 16.4281 21.5 16 21.5C15.5725 21.5 15.1575 21.4463 14.7615 21.3454C13.9375 21.1354 13.1953 20.7208 12.5923 20.1589C12.3703 19.9521 12.1672 19.7253 11.9857 19.4814C11.3665 18.6489 11 17.6173 11 16.5ZM18.258 13.5376C18.1353 13.2939 17.9977 13.0635 17.8466 12.8486C18.1266 12.9905 18.3882 13.1637 18.6266 13.3635C18.508 13.4256 18.385 13.4838 18.258 13.5376ZM18.6037 14.3784C18.8374 14.2799 19.0609 14.1684 19.2726 14.0449C19.7007 14.6146 19.9835 15.2999 20.0659 16.0455H18.9205C18.883 15.4601 18.7741 14.8991 18.6037 14.3784ZM18.6041 18.6227C18.7745 18.1017 18.8834 17.5403 18.9207 16.9545H20.0659C19.9835 17.7004 19.7005 18.3859 19.2721 18.9558C19.0607 18.8325 18.8375 18.7211 18.6041 18.6227ZM18.2586 19.4637C18.3852 19.5173 18.5077 19.5752 18.6259 19.6371C18.3885 19.836 18.1281 20.0085 17.8494 20.15C17.9997 19.9358 18.1366 19.7063 18.2586 19.4637ZM13.7433 19.464C13.8656 19.7071 14.0027 19.9369 14.1533 20.1514C13.874 20.0098 13.6131 19.8371 13.3751 19.6379C13.4935 19.5758 13.6164 19.5177 13.7433 19.464ZM13.3977 18.623C13.164 18.7216 12.9404 18.8332 12.7287 18.9569C12.2998 18.3867 12.0166 17.7009 11.9341 16.9545H13.0811C13.1184 17.5404 13.2273 18.1019 13.3977 18.623ZM13.3982 14.3781C13.2278 14.8989 13.1187 15.46 13.0813 16.0455H11.9341C12.0165 15.2994 12.2996 14.6138 12.7282 14.0438C12.9402 14.1676 13.1641 14.2794 13.3982 14.3781ZM13.744 13.5373C13.6166 13.4833 13.4933 13.425 13.3744 13.3627C13.6133 13.1625 13.8755 12.9892 14.1562 12.8472C14.0047 13.0624 13.8668 13.2932 13.744 13.5373ZM16.4563 20.3457C16.6607 20.173 16.8523 19.9685 17.0276 19.7349C17.156 19.5636 17.2747 19.3777 17.382 19.1788C17.0864 19.1093 16.7767 19.0614 16.4563 19.0379V20.3457ZM17.7428 18.3317C17.8816 17.9052 17.9739 17.4423 18.0095 16.9545H16.4563V18.1267C16.9016 18.1551 17.3328 18.2249 17.7428 18.3317ZM18.0093 16.0455C17.9735 15.5581 17.8811 15.0956 17.7423 14.6694C17.3324 14.7761 16.9014 14.8459 16.4563 14.8743V16.0455H18.0093ZM17.3812 13.8223C17.2741 13.624 17.1557 13.4385 17.0276 13.2677C16.8523 13.034 16.6607 12.8296 16.4563 12.6569V13.9631C16.7764 13.9396 17.0858 13.8917 17.3812 13.8223ZM13.9925 16.0455C14.0283 15.558 14.1207 15.0954 14.2595 14.6692C14.6699 14.7761 15.1015 14.8459 15.5472 14.8743V16.0455H13.9925ZM14.259 18.3319C14.1202 17.9053 14.0279 17.4423 13.9923 16.9545H15.5472V18.1266C15.1014 18.155 14.6696 18.225 14.259 18.3319ZM14.9742 19.7349C14.8458 19.5637 14.7272 19.3778 14.6198 19.179C14.916 19.1093 15.2262 19.0613 15.5472 19.0378V20.3472C15.3422 20.1742 15.15 19.9692 14.9742 19.7349ZM14.9742 13.2677C14.8461 13.4385 14.7277 13.6239 14.6206 13.8222C14.9166 13.8917 15.2265 13.9397 15.5472 13.9632V12.6554C15.3422 12.8284 15.15 13.0334 14.9742 13.2677ZM13 23C12.7239 23 12.5 23.2239 12.5 23.5C12.5 23.7761 12.7239 24 13 24H13.0149H13.0297H13.0445H13.0592H13.0739H13.0886H13.1032H13.1178H13.1324H13.1469H13.1614H13.1759H13.1903H13.2047H13.219H13.2333H13.2476H13.2619H13.2761H13.2903H13.3044H13.3185H13.3326H13.3466H13.3607H13.3746H13.3886H13.4025H13.4164H13.4302H13.444H13.4578H13.4716H13.4853H13.499H13.5126H13.5262H13.5398H13.5534H13.5669H13.5804H13.5939H13.6073H13.6207H13.6341H13.6474H13.6607H13.674H13.6873H13.7005H13.7137H13.7268H13.74H13.7531H13.7661H13.7792H13.7922H13.8052H13.8181H13.8311H13.844H13.8568H13.8697H13.8825H13.8953H13.9081H13.9208H13.9335H13.9462H13.9588H13.9715H13.984H13.9966H14.0092H14.0217H14.0342H14.0467H14.0591H14.0715H14.0839H14.0963H14.1086H14.1209H14.1332H14.1455H14.1577H14.1699H14.1821H14.1943H14.2064H14.2186H14.2306H14.2427H14.2548H14.2668H14.2788H14.2908H14.3027H14.3147H14.3266H14.3385H14.3503H14.3622H14.374H14.3858H14.3976H14.4093H14.421H14.4328H14.4445H14.4561H14.4678H14.4794H14.491H14.5026H14.5142H14.5257H14.5372H14.5487H14.5602H14.5717H14.5831H14.5946H14.606H14.6174H14.6287H14.6401H14.6514H14.6627H14.674H14.6853H14.6966H14.7078H14.719H14.7303H14.7414H14.7526H14.7638H14.7749H14.786H14.7971H14.8082H14.8193H14.8304H14.8414H14.8524H14.8634H14.8744H14.8854H14.8963H14.9073H14.9182H14.9291H14.94H14.9509H14.9618H14.9726H14.9835H14.9943H15.0051H15.0159H15.0267H15.0375H15.0483H15.059H15.0697H15.0804H15.0912H15.1019H15.1125H15.1232H15.1339H15.1445H15.1551H15.1658H15.1764H15.187H15.1976H15.2081H15.2187H15.2292H15.2398H15.2503H15.2608H15.2713H15.2818H15.2923H15.3028H15.3133H15.3237H15.3342H15.3446H15.3551H15.3655H15.3759H15.3863H15.3967H15.4071H15.4175H15.4279H15.4382H15.4486H15.4589H15.4693H15.4796H15.4899H15.5002H15.5106H15.5209H15.5312H15.5414H15.5517H15.562H15.5723H15.5825H15.5928H15.6031H15.6133H15.6235H15.6338H15.644H15.6542H15.6645H15.6747H15.6849H15.6951H15.7053H15.7155H15.7257H15.7359H15.7461H15.7563H15.7665H15.7766H15.7868H15.797H15.8071H15.8173H15.8275H15.8376H15.8478H15.858H15.8681H15.8783H15.8884H15.8986H15.9087H15.9189H15.929H15.9391H15.9493H15.9594H15.9696H15.9797H15.9899H16H16.0101H16.0203H16.0304H16.0406H16.0507H16.0609H16.071H16.0811H16.0913H16.1014H16.1116H16.1217H16.1319H16.142H16.1522H16.1624H16.1725H16.1827H16.1929H16.203H16.2132H16.2234H16.2335H16.2437H16.2539H16.2641H16.2743H16.2845H16.2947H16.3049H16.3151H16.3253H16.3355H16.3458H16.356H16.3662H16.3765H16.3867H16.3969H16.4072H16.4175H16.4277H16.438H16.4483H16.4586H16.4688H16.4791H16.4894H16.4998H16.5101H16.5204H16.5307H16.5411H16.5514H16.5618H16.5721H16.5825H16.5929H16.6033H16.6137H16.6241H16.6345H16.6449H16.6554H16.6658H16.6763H16.6867H16.6972H16.7077H16.7182H16.7287H16.7392H16.7497H16.7602H16.7708H16.7813H16.7919H16.8024H16.813H16.8236H16.8342H16.8449H16.8555H16.8661H16.8768H16.8875H16.8981H16.9088H16.9196H16.9303H16.941H16.9517H16.9625H16.9733H16.9841H16.9949H17.0057H17.0165H17.0274H17.0382H17.0491H17.06H17.0709H17.0818H17.0927H17.1037H17.1146H17.1256H17.1366H17.1476H17.1586H17.1696H17.1807H17.1918H17.2029H17.214H17.2251H17.2362H17.2474H17.2586H17.2697H17.281H17.2922H17.3034H17.3147H17.326H17.3373H17.3486H17.3599H17.3713H17.3826H17.394H17.4054H17.4169H17.4283H17.4398H17.4513H17.4628H17.4743H17.4858H17.4974H17.509H17.5206H17.5322H17.5439H17.5555H17.5672H17.579H17.5907H17.6024H17.6142H17.626H17.6378H17.6497H17.6615H17.6734H17.6853H17.6973H17.7092H17.7212H17.7332H17.7452H17.7573H17.7694H17.7814H17.7936H17.8057H17.8179H17.8301H17.8423H17.8545H17.8668H17.8791H17.8914H17.9037H17.9161H17.9285H17.9409H17.9534H17.9658H17.9783H17.9908H18.0034H18.016H18.0285H18.0412H18.0538H18.0665H18.0792H18.0919H18.1047H18.1175H18.1303H18.1432H18.156H18.1689H18.1819H18.1948H18.2078H18.2208H18.2339H18.2469H18.26H18.2732H18.2863H18.2995H18.3127H18.326H18.3393H18.3526H18.3659H18.3793H18.3927H18.4061H18.4196H18.4331H18.4466H18.4602H18.4738H18.4874H18.501H18.5147H18.5284H18.5422H18.556H18.5698H18.5836H18.5975H18.6114H18.6254H18.6393H18.6534H18.6674H18.6815H18.6956H18.7097H18.7239H18.7381H18.7524H18.7667H18.781H18.7953H18.8097H18.8241H18.8386H18.8531H18.8676H18.8822H18.8968H18.9114H18.9261H18.9408H18.9555H18.9703H18.9851H19C19.2761 24 19.5 23.7761 19.5 23.5C19.5 23.2239 19.2761 23 19 23H18.9851H18.9703H18.9555H18.9408H18.9261H18.9114H18.8968H18.8822H18.8676H18.8531H18.8386H18.8241H18.8097H18.7953H18.781H18.7667H18.7524H18.7381H18.7239H18.7097H18.6956H18.6815H18.6674H18.6534H18.6393H18.6254H18.6114H18.5975H18.5836H18.5698H18.556H18.5422H18.5284H18.5147H18.501H18.4874H18.4738H18.4602H18.4466H18.4331H18.4196H18.4061H18.3927H18.3793H18.3659H18.3526H18.3393H18.326H18.3127H18.2995H18.2863H18.2732H18.26H18.2469H18.2339H18.2208H18.2078H18.1948H18.1819H18.1689H18.156H18.1432H18.1303H18.1175H18.1047H18.0919H18.0792H18.0665H18.0538H18.0412H18.0285H18.016H18.0034H17.9908H17.9783H17.9658H17.9534H17.9409H17.9285H17.9161H17.9037H17.8914H17.8791H17.8668H17.8545H17.8423H17.8301H17.8179H17.8057H17.7936H17.7814H17.7694H17.7573H17.7452H17.7332H17.7212H17.7092H17.6973H17.6853H17.6734H17.6615H17.6497H17.6378H17.626H17.6142H17.6024H17.5907H17.579H17.5672H17.5555H17.5439H17.5322H17.5206H17.509H17.4974H17.4858H17.4743H17.4628H17.4513H17.4398H17.4283H17.4169H17.4054H17.394H17.3826H17.3713H17.3599H17.3486H17.3373H17.326H17.3147H17.3034H17.2922H17.281H17.2697H17.2586H17.2474H17.2362H17.2251H17.214H17.2029H17.1918H17.1807H17.1696H17.1586H17.1476H17.1366H17.1256H17.1146H17.1037H17.0927H17.0818H17.0709H17.06H17.0491H17.0382H17.0274H17.0165H17.0057H16.9949H16.9841H16.9733H16.9625H16.9517H16.941H16.9303H16.9196H16.9088H16.8981H16.8875H16.8768H16.8661H16.8555H16.8449H16.8342H16.8236H16.813H16.8024H16.7919H16.7813H16.7708H16.7602H16.7497H16.7392H16.7287H16.7182H16.7077H16.6972H16.6867H16.6763H16.6658H16.6554H16.6449H16.6345H16.6241H16.6137H16.6033H16.5929H16.5825H16.5721H16.5618H16.5514H16.5411H16.5307H16.5204H16.5101H16.4998H16.4894H16.4791H16.4688H16.4586H16.4483H16.438H16.4277H16.4175H16.4072H16.3969H16.3867H16.3765H16.3662H16.356H16.3458H16.3355H16.3253H16.3151H16.3049H16.2947H16.2845H16.2743H16.2641H16.2539H16.2437H16.2335H16.2234H16.2132H16.203H16.1929H16.1827H16.1725H16.1624H16.1522H16.142H16.1319H16.1217H16.1116H16.1014H16.0913H16.0811H16.071H16.0609H16.0507H16.0406H16.0304H16.0203H16.0101H16H15.9899H15.9797H15.9696H15.9594H15.9493H15.9391H15.929H15.9189H15.9087H15.8986H15.8884H15.8783H15.8681H15.858H15.8478H15.8376H15.8275H15.8173H15.8071H15.797H15.7868H15.7766H15.7665H15.7563H15.7461H15.7359H15.7257H15.7155H15.7053H15.6951H15.6849H15.6747H15.6645H15.6542H15.644H15.6338H15.6235H15.6133H15.6031H15.5928H15.5825H15.5723H15.562H15.5517H15.5414H15.5312H15.5209H15.5106H15.5002H15.4899H15.4796H15.4693H15.4589H15.4486H15.4382H15.4279H15.4175H15.4071H15.3967H15.3863H15.3759H15.3655H15.3551H15.3446H15.3342H15.3237H15.3133H15.3028H15.2923H15.2818H15.2713H15.2608H15.2503H15.2398H15.2292H15.2187H15.2081H15.1976H15.187H15.1764H15.1658H15.1551H15.1445H15.1339H15.1232H15.1125H15.1019H15.0912H15.0804H15.0697H15.059H15.0483H15.0375H15.0267H15.0159H15.0051H14.9943H14.9835H14.9726H14.9618H14.9509H14.94H14.9291H14.9182H14.9073H14.8963H14.8854H14.8744H14.8634H14.8524H14.8414H14.8304H14.8193H14.8082H14.7971H14.786H14.7749H14.7638H14.7526H14.7414H14.7303H14.719H14.7078H14.6966H14.6853H14.674H14.6627H14.6514H14.6401H14.6287H14.6174H14.606H14.5946H14.5831H14.5717H14.5602H14.5487H14.5372H14.5257H14.5142H14.5026H14.491H14.4794H14.4678H14.4561H14.4445H14.4328H14.421H14.4093H14.3976H14.3858H14.374H14.3622H14.3503H14.3385H14.3266H14.3147H14.3027H14.2908H14.2788H14.2668H14.2548H14.2427H14.2306H14.2186H14.2064H14.1943H14.1821H14.1699H14.1577H14.1455H14.1332H14.1209H14.1086H14.0963H14.0839H14.0715H14.0591H14.0467H14.0342H14.0217H14.0092H13.9966H13.984H13.9715H13.9588H13.9462H13.9335H13.9208H13.9081H13.8953H13.8825H13.8697H13.8568H13.844H13.8311H13.8181H13.8052H13.7922H13.7792H13.7661H13.7531H13.74H13.7268H13.7137H13.7005H13.6873H13.674H13.6607H13.6474H13.6341H13.6207H13.6073H13.5939H13.5804H13.5669H13.5534H13.5398H13.5262H13.5126H13.499H13.4853H13.4716H13.4578H13.444H13.4302H13.4164H13.4025H13.3886H13.3746H13.3607H13.3466H13.3326H13.3185H13.3044H13.2903H13.2761H13.2619H13.2476H13.2333H13.219H13.2047H13.1903H13.1759H13.1614H13.1469H13.1324H13.1178H13.1032H13.0886H13.0739H13.0592H13.0445H13.0297H13.0149H13Z" fill="white"/>
</g>
<defs>
<clipPath id="clip0_1208_15454">
<rect width="32" height="32" fill="white"/>
</clipPath>
</defs>
</svg>
