<svg width="32" height="32" viewBox="0 0 32 32" fill="none" xmlns="http://www.w3.org/2000/svg">
<g clip-path="url(#clip0_1208_11656)">
<circle cx="16" cy="16" r="16" fill="#2563EB"/>
<path d="M8 15L9.54415 10.3675C9.81638 9.55086 10.5807 9 11.4415 9H20.5585C21.4193 9 22.1836 9.55086 22.4558 10.3675L24 15" stroke="white" stroke-width="2" stroke-linejoin="round"/>
<path d="M26 13.5V13.5C25.042 13.5 24.387 14.4675 24.7428 15.357L24.8847 15.7116C24.9609 15.9021 25 16.1054 25 16.3106V20H7V16.3106C7 16.1054 7.03915 15.9021 7.11535 15.7116L7.25722 15.357C7.61299 14.4675 6.95795 13.5 6 13.5V13.5" stroke="white" stroke-width="2" stroke-linecap="round"/>
<path fill-rule="evenodd" clip-rule="evenodd" d="M7 14H25V20H7V14ZM8 17C8 16.4477 8.44772 16 9 16H11C11.5523 16 12 16.4477 12 17C12 17.5523 11.5523 18 11 18H9C8.44772 18 8 17.5523 8 17ZM21 16C20.4477 16 20 16.4477 20 17C20 17.5523 20.4477 18 21 18H23C23.5523 18 24 17.5523 24 17C24 16.4477 23.5523 16 23 16H21Z" fill="white"/>
<path d="M8 21V22" stroke="white" stroke-width="4" stroke-linecap="round" stroke-linejoin="round"/>
<path d="M24 21V22" stroke="white" stroke-width="4" stroke-linecap="round" stroke-linejoin="round"/>
</g>
<defs>
<clipPath id="clip0_1208_11656">
<rect width="32" height="32" fill="white"/>
</clipPath>
</defs>
</svg>
