<svg width="32" height="32" viewBox="0 0 32 32" fill="none" xmlns="http://www.w3.org/2000/svg">
<g clip-path="url(#clip0_1291_14897)">
<circle cx="16" cy="16" r="16" fill="#16A34A"/>
<mask id="path-2-inside-1_1291_14897" fill="white">
<path fill-rule="evenodd" clip-rule="evenodd" d="M13.9329 19.75C13.9153 19.594 13.9062 19.4356 13.9062 19.275C13.9062 16.914 15.858 15 18.2656 15C20.1912 15 21.8252 16.2243 22.4023 17.9224C22.6304 17.875 22.8669 17.85 23.1094 17.85C24.982 17.85 26.5 19.3387 26.5 21.175C26.5 23.0113 24.982 24.5 23.1094 24.5H13.4219C12.0843 24.5 11 23.4367 11 22.125C11 20.8133 12.0843 19.75 13.4219 19.75H13.9329Z"/>
</mask>
<path fill-rule="evenodd" clip-rule="evenodd" d="M13.9329 19.75C13.9153 19.594 13.9062 19.4356 13.9062 19.275C13.9062 16.914 15.858 15 18.2656 15C20.1912 15 21.8252 16.2243 22.4023 17.9224C22.6304 17.875 22.8669 17.85 23.1094 17.85C24.982 17.85 26.5 19.3387 26.5 21.175C26.5 23.0113 24.982 24.5 23.1094 24.5H13.4219C12.0843 24.5 11 23.4367 11 22.125C11 20.8133 12.0843 19.75 13.4219 19.75H13.9329Z" fill="white"/>
<path d="M13.9329 19.75V20.75H15.0519L14.9266 19.638L13.9329 19.75ZM22.4023 17.9224L21.4555 18.2442L21.7401 19.0816L22.606 18.9014L22.4023 17.9224ZM14.9266 19.638C14.9132 19.5191 14.9062 19.398 14.9062 19.275H12.9062C12.9062 19.4731 12.9174 19.6689 12.9391 19.862L14.9266 19.638ZM14.9062 19.275C14.9062 17.4846 16.3918 16 18.2656 16V14C15.3242 14 12.9062 16.3434 12.9062 19.275H14.9062ZM18.2656 16C19.7605 16 21.0154 16.9492 21.4555 18.2442L23.3491 17.6006C22.635 15.4993 20.6219 14 18.2656 14V16ZM22.606 18.9014C22.7674 18.8679 22.9357 18.85 23.1094 18.85V16.85C22.7981 16.85 22.4933 16.8821 22.1986 16.9434L22.606 18.9014ZM23.1094 18.85C24.4482 18.85 25.5 19.9093 25.5 21.175H27.5C27.5 18.768 25.5157 16.85 23.1094 16.85V18.85ZM25.5 21.175C25.5 22.4407 24.4482 23.5 23.1094 23.5V25.5C25.5157 25.5 27.5 23.582 27.5 21.175H25.5ZM23.1094 23.5H13.4219V25.5H23.1094V23.5ZM13.4219 23.5C12.6181 23.5 12 22.8661 12 22.125H10C10 24.0073 11.5505 25.5 13.4219 25.5V23.5ZM12 22.125C12 21.3839 12.6181 20.75 13.4219 20.75V18.75C11.5505 18.75 10 20.2427 10 22.125H12ZM13.4219 20.75H13.9329V18.75H13.4219V20.75Z" fill="white" mask="url(#path-2-inside-1_1291_14897)"/>
<path d="M6 15H7" stroke="white" stroke-width="1.5" stroke-linecap="round"/>
<path d="M8 9.5L8.5 10" stroke="white" stroke-width="1.5" stroke-linecap="round"/>
<path d="M14 7L14 8" stroke="white" stroke-width="1.5" stroke-linecap="round"/>
<path d="M19.5 9.5L19 10" stroke="white" stroke-width="1.5" stroke-linecap="round"/>
<path d="M9 20L8.26511 20.6763" stroke="white" stroke-width="1.5" stroke-linecap="round"/>
<path fill-rule="evenodd" clip-rule="evenodd" d="M18.7779 13.5218C18.609 13.5074 18.4381 13.5 18.2656 13.5C15.3671 13.5 12.9233 15.588 12.4785 18.3635C11.955 18.4917 11.4707 18.7241 11.0513 19.0384C9.80772 18.1288 9 16.6587 9 15C9 12.2386 11.2386 10 14 10C16.2468 10 18.1475 11.482 18.7779 13.5218Z" fill="white"/>
</g>
<defs>
<clipPath id="clip0_1291_14897">
<rect width="32" height="32" fill="white"/>
</clipPath>
</defs>
</svg>
