<svg width="32" height="32" viewBox="0 0 32 32" fill="none" xmlns="http://www.w3.org/2000/svg">
<g clip-path="url(#clip0_1208_15330)">
<circle cx="16" cy="16" r="16" fill="#2563EB"/>
<path fill-rule="evenodd" clip-rule="evenodd" d="M26 19.9999V9.99988C26 9.44759 25.5523 8.99988 25 8.99988H24.492C24.0168 8.99988 23.5425 8.95753 23.0748 8.87335L21.3597 8.56463C19.3981 8.21154 17.3893 8.85655 16 10.2856C14.6107 8.85655 12.6019 8.21154 10.6403 8.56463L8.92519 8.87335C8.45747 8.95753 7.98319 8.99988 7.50796 8.99988H7C6.44772 8.99988 6 9.44759 6 9.99988V19.9999C6 20.5522 6.44772 20.9999 7 20.9999H7.50796C7.98319 20.9999 8.45747 20.9575 8.92519 20.8733L10.4858 20.5924C12.5306 20.2244 14.6197 20.947 16 22.4999C17.3803 20.947 19.4694 20.2244 21.5142 20.5924L23.0748 20.8733C23.5425 20.9575 24.0168 20.9999 24.492 20.9999H25C25.5523 20.9999 26 20.5522 26 19.9999ZM13.9766 17.8574C12.7953 16.9714 11.2545 16.7213 9.85362 17.1883L8.84189 17.5255C8.57991 17.6129 8.43833 17.896 8.52566 18.158C8.61298 18.42 8.89614 18.5615 9.15811 18.4742L10.1699 18.137C11.2594 17.7738 12.4578 17.9683 13.3766 18.6574L13.7 18.8999C13.9209 19.0656 14.2343 19.0208 14.4 18.7999C14.5657 18.579 14.5209 18.2656 14.3 18.0999L13.9766 17.8574ZM9.85362 14.1883C11.2545 13.7213 12.7953 13.9714 13.9766 14.8574L14.3 15.0999C14.5209 15.2656 14.5657 15.579 14.4 15.7999C14.2343 16.0208 13.9209 16.0656 13.7 15.8999L13.3766 15.6574C12.4578 14.9683 11.2594 14.7738 10.1699 15.137L9.15811 15.4742C8.89614 15.5615 8.61298 15.42 8.52566 15.158C8.43833 14.896 8.57991 14.6129 8.84189 14.5255L9.85362 14.1883ZM13.387 11.6344C12.5364 11.2091 11.5729 11.0642 10.6348 11.2205L8.9178 11.5067C8.64542 11.5521 8.46141 11.8097 8.5068 12.0821C8.5522 12.3545 8.80981 12.5385 9.0822 12.4931L10.7992 12.2069C11.5288 12.0853 12.2782 12.198 12.9398 12.5288L13.7764 12.9471C14.0234 13.0706 14.3237 12.9705 14.4472 12.7235C14.5707 12.4765 14.4706 12.1762 14.2236 12.0527L13.387 11.6344ZM22.1464 17.1883C20.7455 16.7213 19.2047 16.9714 18.0234 17.8574L17.7 18.0999C17.4791 18.2656 17.4343 18.579 17.6 18.7999C17.7657 19.0208 18.0791 19.0656 18.3 18.8999L18.6234 18.6574C19.5422 17.9683 20.7406 17.7738 21.8301 18.137L22.8419 18.4742C23.1039 18.5615 23.387 18.42 23.4743 18.158C23.5617 17.896 23.4201 17.6129 23.1581 17.5255L22.1464 17.1883ZM18.0234 14.8574C19.2047 13.9714 20.7455 13.7213 22.1464 14.1883L23.1581 14.5255C23.4201 14.6129 23.5617 14.896 23.4743 15.158C23.387 15.42 23.1039 15.5615 22.8419 15.4742L21.8301 15.137C20.7406 14.7738 19.5422 14.9683 18.6234 15.6574L18.3 15.8999C18.0791 16.0656 17.7657 16.0208 17.6 15.7999C17.4343 15.579 17.4791 15.2656 17.7 15.0999L18.0234 14.8574ZM22.1464 11.1883C20.7455 10.7213 19.2047 10.9714 18.0234 11.8574L17.7 12.0999C17.4791 12.2656 17.4343 12.579 17.6 12.7999C17.7657 13.0208 18.0791 13.0656 18.3 12.8999L18.6234 12.6574C19.5422 11.9683 20.7406 11.7738 21.8301 12.137L22.8419 12.4742C23.1039 12.5615 23.387 12.42 23.4743 12.158C23.5617 11.896 23.4201 11.6129 23.1581 11.5255L22.1464 11.1883Z" fill="white"/>
<path d="M6.5 23H8.71528C9.13589 23 9.55536 22.9564 9.96697 22.8699L10.6329 22.7299C12.7205 22.2911 14.8609 23.1964 16 25V25V25C17.1391 23.1964 19.2795 22.2911 21.3671 22.7299L22.033 22.8699C22.4446 22.9564 22.8641 23 23.2847 23H25.5" stroke="white" stroke-width="1.5" stroke-miterlimit="5.75877" stroke-linecap="round" stroke-linejoin="round"/>
</g>
<defs>
<clipPath id="clip0_1208_15330">
<rect width="32" height="32" fill="white"/>
</clipPath>
</defs>
</svg>
