<svg width="32" height="32" viewBox="0 0 32 32" fill="none" xmlns="http://www.w3.org/2000/svg">
<g clip-path="url(#clip0_1291_15281)">
<circle cx="16" cy="16" r="16" fill="#2563EB"/>
<path fill-rule="evenodd" clip-rule="evenodd" d="M8 9C8 6.79086 9.79086 5 12 5H20C22.2091 5 24 6.79086 24 9V21C24 22.1046 23.1046 23 22 23H10C8.89543 23 8 22.1046 8 21V9ZM13 19.5C13 20.3284 12.3284 21 11.5 21C10.6716 21 10 20.3284 10 19.5C10 18.6716 10.6716 18 11.5 18C12.3284 18 13 18.6716 13 19.5ZM20.5 21C21.3284 21 22 20.3284 22 19.5C22 18.6716 21.3284 18 20.5 18C19.6716 18 19 18.6716 19 19.5C19 20.3284 19.6716 21 20.5 21ZM10 10C10 9.44772 10.4477 9 11 9H21C21.5523 9 22 9.44772 22 10V15C22 15.5523 21.5523 16 21 16H11C10.4477 16 10 15.5523 10 15V10ZM14 6.25C13.5858 6.25 13.25 6.58579 13.25 7C13.25 7.41421 13.5858 7.75 14 7.75H18C18.4142 7.75 18.75 7.41421 18.75 7C18.75 6.58579 18.4142 6.25 18 6.25H14Z" fill="white"/>
<path d="M13.5 21L10 26" stroke="white" stroke-width="1.5" stroke-linecap="round"/>
<path d="M18.5 21L22 26" stroke="white" stroke-width="1.5" stroke-linecap="round"/>
<path d="M11 25L21 25" stroke="white" stroke-width="1.5" stroke-linecap="round"/>
</g>
<defs>
<clipPath id="clip0_1291_15281">
<rect width="32" height="32" fill="white"/>
</clipPath>
</defs>
</svg>
