<svg width="62" height="60" viewBox="0 0 62 60" fill="none" xmlns="http://www.w3.org/2000/svg">
<path d="M55.6469 15.75C56.0002 16.3616 56.0841 17.3714 55.4425 18.9583C54.8098 20.5234 53.5618 22.3996 51.7191 24.4655C48.045 28.5849 42.2389 33.2012 35.1607 37.2857C28.0825 41.3703 21.1797 44.0878 15.7734 45.2084C13.062 45.7704 10.8123 45.9126 9.13981 45.6778C7.44409 45.4397 6.61109 44.8622 6.25782 44.2506C5.90455 43.639 5.82064 42.6292 6.46221 41.0424C7.095 39.4772 8.343 37.601 10.1857 35.5351C13.8598 31.4157 19.6659 26.7994 26.744 22.7149C33.8222 18.6303 40.7251 15.9128 46.1314 14.7922C48.8428 14.2302 51.0924 14.088 52.7649 14.3228C54.4607 14.5609 55.2937 15.1385 55.6469 15.75Z" stroke="url(#paint0_linear_3006_31715)" stroke-width="3"/>
<path d="M30.9524 1.5C31.6597 1.5 32.5768 1.93268 33.6308 3.28125C34.6704 4.61148 35.672 6.62973 36.5407 9.2576C38.2729 14.4974 39.3696 21.831 39.3696 30C39.3696 38.169 38.2729 45.5026 36.5407 50.7424C35.672 53.3703 34.6704 55.3885 33.6308 56.7188C32.5768 58.0673 31.6597 58.5 30.9524 58.5C30.2451 58.5 29.328 58.0673 28.274 56.7188C27.2344 55.3885 26.2328 53.3703 25.364 50.7424C23.6319 45.5026 22.5352 38.169 22.5352 30C22.5352 21.831 23.6319 14.4974 25.364 9.2576C26.2328 6.62973 27.2343 4.61148 28.274 3.28125C29.328 1.93268 30.2451 1.5 30.9524 1.5Z" stroke="url(#paint1_linear_3006_31715)" stroke-width="3"/>
<path d="M55.6469 44.2506C55.2937 44.8622 54.4607 45.4397 52.7649 45.6778C51.0924 45.9126 48.8428 45.7704 46.1314 45.2084C40.7251 44.0878 33.8222 41.3703 26.744 37.2857C19.6659 33.2012 13.8598 28.5849 10.1857 24.4655C8.343 22.3996 7.095 20.5234 6.46221 18.9583C5.82063 17.3714 5.90455 16.3616 6.25782 15.75C6.61108 15.1385 7.44409 14.5609 9.13981 14.3228C10.8123 14.088 13.062 14.2302 15.7734 14.7922C21.1797 15.9128 28.0825 18.6303 35.1607 22.7149C42.2389 26.7994 48.045 31.4157 51.7191 35.5351C53.5618 37.601 54.8098 39.4772 55.4425 41.0424C56.0841 42.6292 56.0002 43.639 55.6469 44.2506Z" stroke="url(#paint2_linear_3006_31715)" stroke-width="3"/>
<defs>
<linearGradient id="paint0_linear_3006_31715" x1="9.91724" y1="53.5846" x2="6.64572" y2="33.0777" gradientUnits="userSpaceOnUse">
<stop stop-color="#94A3B8" stop-opacity="0.5"/>
<stop offset="1" stop-color="#E2E8F0"/>
</linearGradient>
<linearGradient id="paint1_linear_3006_31715" x1="20.9988" y1="-2.92356" x2="48.4096" y2="12.1925" gradientUnits="userSpaceOnUse">
<stop stop-color="#6A98FE"/>
<stop offset="1" stop-color="#2563EB"/>
</linearGradient>
<linearGradient id="paint2_linear_3006_31715" x1="-4.51243e-06" y1="23.5846" x2="16.1242" y2="10.4889" gradientUnits="userSpaceOnUse">
<stop stop-color="#94A3B8" stop-opacity="0.5"/>
<stop offset="1" stop-color="#E2E8F0"/>
</linearGradient>
</defs>
</svg>
