<svg width="80" height="74" viewBox="0 0 80 74" fill="none" xmlns="http://www.w3.org/2000/svg">
<path d="M18.8853 53.1658L27.798 39.905L33.6511 48.6136L49.3482 25.2588L56.5316 35.9466L71.4305 13.7793" stroke="url(#paint0_linear_3006_31924)" stroke-width="3" stroke-linecap="round" stroke-linejoin="round"/>
<path d="M13.0607 0.93934C12.4749 0.353553 11.5251 0.353553 10.9393 0.93934L1.3934 10.4853C0.807611 11.0711 0.807611 12.0208 1.3934 12.6066C1.97919 13.1924 2.92893 13.1924 3.51472 12.6066L12 4.12132L20.4853 12.6066C21.0711 13.1924 22.0208 13.1924 22.6066 12.6066C23.1924 12.0208 23.1924 11.0711 22.6066 10.4853L13.0607 0.93934ZM12 62H10.5C10.5 62.8284 11.1716 63.5 12 63.5V62ZM79.3764 63.0607C79.9622 62.4749 79.9622 61.5251 79.3764 60.9393L69.8305 51.3934C69.2447 50.8076 68.295 50.8076 67.7092 51.3934C67.1234 51.9792 67.1234 52.9289 67.7092 53.5147L76.1945 62L67.7092 70.4853C67.1234 71.0711 67.1234 72.0208 67.7092 72.6066C68.295 73.1924 69.2447 73.1924 69.8305 72.6066L79.3764 63.0607ZM10.5 2V62H13.5V2H10.5ZM12 63.5H78.3158V60.5H12V63.5Z" fill="url(#paint1_linear_3006_31924)"/>
<defs>
<linearGradient id="paint0_linear_3006_31924" x1="73.9909" y1="13.7071" x2="39.3669" y2="41.3966" gradientUnits="userSpaceOnUse">
<stop stop-color="#6A98FE"/>
<stop offset="1" stop-color="#2563EB"/>
</linearGradient>
<linearGradient id="paint1_linear_3006_31924" x1="12" y1="62" x2="45.6089" y2="29.9114" gradientUnits="userSpaceOnUse">
<stop stop-color="#94A3B8" stop-opacity="0.5"/>
<stop offset="1" stop-color="#E2E8F0"/>
</linearGradient>
</defs>
</svg>
