<svg width="32" height="32" viewBox="0 0 32 32" fill="none" xmlns="http://www.w3.org/2000/svg">
<g clip-path="url(#clip0_1295_31418)">
<circle cx="16" cy="16" r="16" fill="#3F3F46"/>
<g clip-path="url(#clip1_1295_31418)">
<path d="M14 21.4817H17.5772C18.0012 21.4817 18.2769 21.0356 18.0873 20.6564C17.7237 19.9292 17.0007 19.4505 16.1893 19.3998L12.1924 19.1498C10.4458 19.0406 8.71154 19.5071 7.25545 20.4778L5.76732 21.4699C5.33386 21.7589 5.19487 22.3322 5.44786 22.7876L7.06175 25.6926C7.30681 26.1337 7.85581 26.3036 8.30717 26.0779C9.73234 25.3655 11.3466 25.1228 12.9182 25.3846L15.0066 25.7326C15.9689 25.8929 16.9566 25.6961 17.7839 25.179L23.6316 21.5245C24.0119 21.2867 23.9853 20.7243 23.5841 20.5236C22.9057 20.1843 22.1035 20.2017 21.4405 20.5701L18.8096 22.0319C18.2786 22.3269 17.6812 22.4817 17.0738 22.4817H14C13.7239 22.4817 13.5 22.2579 13.5 21.9817C13.5 21.7056 13.7239 21.4817 14 21.4817Z" fill="white"/>
<path fill-rule="evenodd" clip-rule="evenodd" d="M19.6224 22.4381L20 22.4814L20.0926 22.1768L19.6224 22.4381ZM18.667 20.151C18.6992 20.2063 18.7297 20.2628 18.7586 20.3205C18.8926 20.5887 18.9262 20.8713 18.8802 21.1345L20.7209 20.1118L20.8693 19.6237C20.942 19.3848 20.8111 19.1314 20.5741 19.0525C19.949 18.8442 19.2638 19.1062 18.937 19.6783L18.667 20.151Z" fill="white"/>
<path fill-rule="evenodd" clip-rule="evenodd" d="M18.1335 19.4763L18.3879 18.5859C18.4504 18.367 18.3295 18.1377 18.1135 18.0657C17.5131 17.8656 16.862 18.1363 16.5764 18.691C17.1659 18.7954 17.7062 19.0712 18.1335 19.4763ZM15.6992 20.731L15.9542 20.1357L16.1432 20.1476C16.5841 20.1751 16.9861 20.3909 17.2527 20.731H15.6992Z" fill="white"/>
<path d="M18.4369 12.1584L14.9816 13.0843C14.5721 13.194 14.4212 13.6963 14.7025 14.0136C15.2419 14.6218 16.0642 14.8971 16.8611 14.7361L20.7865 13.943C22.5018 13.5965 24.0562 12.697 25.2115 11.3825L26.3921 10.0391C26.736 9.64776 26.7219 9.05799 26.3596 8.6836L24.0489 6.29529C23.698 5.93263 23.1237 5.91065 22.7462 6.24542C21.5539 7.30246 20.0575 7.95468 18.4716 8.10851L16.3644 8.31291C15.3934 8.4071 14.4903 8.8529 13.825 9.56643L9.12245 14.61C8.81657 14.938 8.98792 15.4744 9.42735 15.5644C10.1705 15.7166 10.9408 15.4921 11.4859 14.9647L13.6488 12.8718C14.0853 12.4494 14.6223 12.1453 15.209 11.9881L18.1781 11.1925C18.4448 11.121 18.719 11.2793 18.7904 11.5461C18.8619 11.8128 18.7036 12.087 18.4369 12.1584Z" fill="white"/>
<path fill-rule="evenodd" clip-rule="evenodd" d="M12.7577 12.6897L12.3818 12.7455L12.3711 13.0638L12.7577 12.6897ZM14.2725 14.6515C14.2271 14.6065 14.183 14.5598 14.1402 14.5115C13.9413 14.2872 13.8357 14.0229 13.812 13.7567L12.2988 15.221L12.2817 15.7309C12.2733 15.9805 12.4653 16.1913 12.7147 16.2063C13.3724 16.2456 13.9665 15.8152 14.1341 15.178L14.2725 14.6515Z" fill="white"/>
<path fill-rule="evenodd" clip-rule="evenodd" d="M14.9638 15.166L14.9486 16.0919C14.9448 16.3195 15.121 16.5097 15.3482 16.5233C15.98 16.5612 16.5388 16.1312 16.6711 15.5215C16.0747 15.5733 15.4814 15.4466 14.9638 15.166ZM16.9904 13.324L16.8982 13.9649L16.7126 14.0024C16.2796 14.0899 15.8355 13.9855 15.4899 13.726L16.9904 13.324Z" fill="white"/>
</g>
</g>
<defs>
<clipPath id="clip0_1295_31418">
<rect width="32" height="32" fill="white"/>
</clipPath>
<clipPath id="clip1_1295_31418">
<rect width="24" height="24" fill="white" transform="translate(4 4)"/>
</clipPath>
</defs>
</svg>
