<svg width="32" height="32" viewBox="0 0 32 32" fill="none" xmlns="http://www.w3.org/2000/svg">
<g clip-path="url(#clip0_1291_14956)">
<circle cx="16" cy="16" r="16" fill="#16A34A"/>
<path d="M8 21V21C9.22573 21 10.3463 20.3075 10.8944 19.2111L11 19L11.3292 19.6584C11.7403 20.4806 12.5807 21 13.5 21V21C14.4193 21 15.2597 20.4806 15.6708 19.6584L16 19L16.3292 19.6584C16.7403 20.4806 17.5807 21 18.5 21V21C19.4193 21 20.2597 20.4806 20.6708 19.6584L21 19L21.1056 19.2111C21.6537 20.3075 22.7743 21 24 21V21" stroke="white" stroke-width="1.5" stroke-linecap="round" stroke-linejoin="round"/>
<path d="M8 24H8.58579C9.49129 24 10.3597 23.6403 11 23V23V23C11.6403 23.6403 12.5087 24 13.4142 24H13.5858C14.4913 24 15.3597 23.6403 16 23V23V23C16.6403 23.6403 17.5087 24 18.4142 24H18.5858C19.4913 24 20.3597 23.6403 21 23V23V23C21.6403 23.6403 22.5087 24 23.4142 24H24" stroke="white" stroke-width="1.5" stroke-linecap="round" stroke-linejoin="round"/>
<path fill-rule="evenodd" clip-rule="evenodd" d="M10.0004 14V16.8819C10.2707 16.6402 10.6249 16.5 11.0004 16.5C11.5685 16.5 12.0879 16.821 12.342 17.3291L12.6712 17.9875C12.8282 18.3016 13.1492 18.5 13.5004 18.5C13.6811 18.5 13.8538 18.4474 14.0004 18.3536V15.5C14.0004 15.2238 14.2242 15 14.5004 15H17.5004C17.7765 15 18.0004 15.2238 18.0004 15.5V18.3536C18.1469 18.4474 18.3196 18.5 18.5004 18.5C18.8515 18.5 19.1725 18.3016 19.3295 17.9875L19.6587 17.3291C19.9128 16.821 20.4322 16.5 21.0004 16.5C21.3758 16.5 21.73 16.6402 22.0004 16.8819V14H23.6853C24.145 14 24.3611 13.4317 24.0174 13.1263L16.3325 6.29524C16.1431 6.12685 15.8576 6.12685 15.6682 6.29524L7.98328 13.1263C7.63965 13.4317 7.8557 14 8.31546 14H10.0004Z" fill="white"/>
</g>
<defs>
<clipPath id="clip0_1291_14956">
<rect width="32" height="32" fill="white"/>
</clipPath>
</defs>
</svg>
