<svg width="32" height="32" viewBox="0 0 32 32" fill="none" xmlns="http://www.w3.org/2000/svg">
<g clip-path="url(#clip0_1288_13646)">
<circle cx="16" cy="16" r="16" fill="#3F3F46"/>
<path fill-rule="evenodd" clip-rule="evenodd" d="M7.14716 9.17331C6.44685 9.50346 6 10.2081 6 10.9824V21.0173C6 21.7915 6.44685 22.4962 7.14716 22.8264L13 25.5855V17.6154C13 17.2712 12.823 16.9512 12.5314 16.7683L9.46862 14.8471C9.00076 14.5537 8.85939 13.9365 9.15286 13.4686C9.44633 13.0008 10.0635 12.8594 10.5314 13.1529L13.5941 15.074C14.4689 15.6227 15 16.5828 15 17.6154V26.5284L15.1472 26.5978C15.6872 26.8524 16.3128 26.8524 16.8528 26.5978L17 26.5284V17.6154C17 16.5828 17.5311 15.6227 18.4059 15.074L21.4686 13.1529C21.9365 12.8594 22.5537 13.0008 22.8471 13.4686C23.1406 13.9365 22.9992 14.5537 22.5314 14.8471L19.4686 16.7683C19.177 16.9512 19 17.2712 19 17.6154V25.5855L24.8528 22.8264C25.5531 22.4962 26 21.7915 26 21.0173V10.9824C26 10.2081 25.5531 9.50346 24.8528 9.17331L16.8528 5.40189C16.3128 5.14729 15.6872 5.14729 15.1472 5.40189L7.14716 9.17331ZM16 14C17.6569 14 19 12.6569 19 11C19 9.34315 17.6569 8 16 8C14.3431 8 13 9.34315 13 11C13 12.6569 14.3431 14 16 14Z" fill="white"/>
</g>
<defs>
<clipPath id="clip0_1288_13646">
<rect width="32" height="32" fill="white"/>
</clipPath>
</defs>
</svg>
