<svg width="32" height="32" viewBox="0 0 32 32" fill="none" xmlns="http://www.w3.org/2000/svg">
<g clip-path="url(#clip0_1208_11803)">
<circle cx="16" cy="16" r="16" fill="#DC2626"/>
<path d="M14 24L26 24" stroke="white" stroke-width="2" stroke-linecap="round" stroke-linejoin="round"/>
<path fill-rule="evenodd" clip-rule="evenodd" d="M15.9999 22.0002L13.7236 17.8271L14.5982 18.2019C15.4304 18.5586 16.3842 18.0855 16.6038 17.207C16.7833 16.489 16.6763 15.7554 16.3441 15.1396L16.8711 14.9288L19.3711 13.9288L20.282 13.5645L24.4999 22.0002H15.9999ZM14.3597 15.8203L14.2483 15.876L14.5248 15.9945C14.4784 15.9298 14.4231 15.8711 14.3597 15.8203ZM19.1618 16.7266L18.549 18.1992L17.0763 17.5863L16.6921 18.5096L18.1647 19.1225L17.5518 20.5951L18.4751 20.9793L19.088 19.5067L20.5606 20.1196L20.9448 19.1963L19.4722 18.5834L20.0851 17.1108L19.1618 16.7266Z" fill="#F8FAFC"/>
<path d="M15.6055 10.2012L11.5888 9.34045C10.57 9.12215 9.67663 8.51495 9.0987 7.64804L8.57288 6.85932C8.25952 6.38928 7.61929 6.27194 7.15959 6.60029L5.17363 8.01884C4.78281 8.29799 4.64564 8.81556 4.84691 9.25163L6.66981 13.2012C7.19295 14.3347 8.21528 15.159 9.43392 15.4298L11.2707 15.8379C11.7559 15.9457 12.2299 16.0985 12.6866 16.2943L14.9923 17.2824C15.2586 17.3965 15.5637 17.2452 15.634 16.9642C15.8478 16.1087 15.4388 15.2194 14.6501 14.825L12.9881 13.9941C12.4929 13.7464 12.6691 13 13.2228 13H14.2348C15.0449 13 15.8218 13.3218 16.3946 13.8946L16.5 14L19 13L17.8909 11.6136C17.3147 10.8934 16.5074 10.3944 15.6055 10.2012Z" fill="white"/>
</g>
<defs>
<clipPath id="clip0_1208_11803">
<rect width="32" height="32" fill="white"/>
</clipPath>
</defs>
</svg>
