<svg width="32" height="32" viewBox="0 0 32 32" fill="none" xmlns="http://www.w3.org/2000/svg">
<g clip-path="url(#clip0_1295_32267)">
<circle cx="16" cy="16" r="16" fill="#2563EB"/>
<path fill-rule="evenodd" clip-rule="evenodd" d="M15.1683 6.06888C15.7193 5.97704 16.2817 5.97704 16.8328 6.06888L17.5108 6.18188C17.7881 6.28069 18.0528 6.40593 18.302 6.55458C18.5223 6.79435 18.637 7.12717 18.588 7.47385L17.6148 14.3536L19.7019 7.63141C19.7158 7.53268 19.7232 7.43451 19.7242 7.33736C22.133 8.11695 23.875 10.3785 23.875 13.047V16.6875H8.125V13.047C8.125 10.3782 9.86749 8.1163 12.2769 7.33703C12.2779 7.43429 12.2852 7.53257 12.2992 7.63142L14.3863 14.3536L13.4131 7.47385C13.364 7.1265 13.4792 6.79306 13.7003 6.55319C13.9485 6.40532 14.2122 6.28066 14.4883 6.1822L15.1683 6.06888Z" fill="white"/>
<path d="M7 16.125H25" stroke="white" stroke-width="1.5" stroke-linecap="round" stroke-linejoin="round"/>
<path d="M22.75 19.5H9.25V22C9.25 23.1046 10.1454 24 11.25 24H12.1865C13.5158 24 14.7582 23.3397 15.5019 22.2379L16 21.5L16.4981 22.2379C17.2418 23.3397 18.4842 24 19.8135 24H20.75C21.8546 24 22.75 23.1046 22.75 22V19.5Z" stroke="white" stroke-width="1.5" stroke-linecap="round" stroke-linejoin="round"/>
<path d="M22.75 19.5H23.875L22.75 20.625V19.5Z" fill="white" stroke="white" stroke-width="1.5" stroke-linecap="round" stroke-linejoin="round"/>
<path d="M9.25 19.5H8.125L9.25 20.625V19.5Z" fill="white" stroke="white" stroke-width="1.5" stroke-linecap="round" stroke-linejoin="round"/>
<path d="M14.5 23L16 19.5L17.5 23L16 21.5L14.5 23Z" fill="white"/>
</g>
<defs>
<clipPath id="clip0_1295_32267">
<rect width="32" height="32" fill="white"/>
</clipPath>
</defs>
</svg>
