<svg width="32" height="32" viewBox="0 0 32 32" fill="none" xmlns="http://www.w3.org/2000/svg">
<g clip-path="url(#clip0_421_6838)">
<circle cx="16" cy="16" r="16" fill="#DC2626"/>
<path fill-rule="evenodd" clip-rule="evenodd" d="M15.1775 7.18763L10.4206 14.0587C8.46789 16.8793 8.92753 20.7136 11.4916 22.9928C14.0626 25.2781 17.9369 25.2781 20.5078 22.9928C23.0719 20.7136 23.5315 16.8793 21.5788 14.0587L16.8219 7.18763C16.4242 6.61324 15.5752 6.61324 15.1775 7.18763ZM12.1677 14.4454C12.474 13.9859 13.0949 13.8617 13.5544 14.1681C14.0139 14.4744 14.1381 15.0953 13.8318 15.5548L13.6638 15.8067C13.2308 16.4563 12.9997 17.2195 12.9997 18.0001C12.9997 18.5524 12.552 19.0001 11.9997 19.0001C11.4474 19.0001 10.9997 18.5524 10.9997 18.0001C10.9997 16.8246 11.3477 15.6754 11.9997 14.6973L12.1677 14.4454Z" fill="white"/>
</g>
<defs>
<clipPath id="clip0_421_6838">
<rect width="32" height="32" fill="white"/>
</clipPath>
</defs>
</svg>
