<svg width="100" height="100" fill="none" xmlns="http://www.w3.org/2000/svg"><path d="M60 7.813a5.937 5.937 0 1 1-11.875 0 5.937 5.937 0 0 1 11.875 0zM93.75 28.75a8.75 8.75 0 1 1-17.5 0 8.75 8.75 0 0 1 17.5 0z" fill="#1BA88D"/><path fill-rule="evenodd" clip-rule="evenodd" d="M85.61 28.761a3.125 3.125 0 0 1-.651 4.372l-11.853 8.78a3.125 3.125 0 1 1-3.72-5.023l11.852-8.78a3.125 3.125 0 0 1 4.372.651z" fill="#1BA88D"/><path d="M16.25 61.25a6.25 6.25 0 1 1-12.5 0 6.25 6.25 0 0 1 12.5 0zM96.875 55.625a5.625 5.625 0 1 1-11.25 0 5.625 5.625 0 0 1 11.25 0z" fill="#1BA88D"/><path fill-rule="evenodd" clip-rule="evenodd" d="M54.057 8.912a2.188 2.188 0 0 1 2.02 2.343l-.927 12.512a2.187 2.187 0 0 1-4.363-.323l.927-12.512a2.188 2.188 0 0 1 2.343-2.02zM35.518 55.25a2.187 2.187 0 0 1-1.607 2.644l-21.375 5.213a2.187 2.187 0 1 1-1.036-4.25l21.374-5.214a2.188 2.188 0 0 1 2.644 1.607zM90.791 55.889a2.188 2.188 0 0 1-2.597 1.68l-13.222-2.833a2.187 2.187 0 0 1 .917-4.278l13.222 2.834a2.188 2.188 0 0 1 1.68 2.597z" fill="#1BA88D"/><path d="M85 51c0 18.778-14.999 34-33.5 34C32.998 85 18 69.778 18 51s14.998-34 33.5-34C70.001 17 85 32.222 85 51z" fill="#44C4AB"/><path fill-rule="evenodd" clip-rule="evenodd" d="M19.785 19.743a3.125 3.125 0 0 1 4.417.152l13.235 14.18a3.125 3.125 0 0 1-4.569 4.265L19.632 24.16a3.125 3.125 0 0 1 .153-4.417zM25.563 90.585a3.125 3.125 0 0 1-.774-4.351l10.73-15.373a3.125 3.125 0 1 1 5.124 3.577L29.913 89.81a3.125 3.125 0 0 1-4.35.774zM77.569 83.838a3.125 3.125 0 0 1-4.395-.467l-9.198-11.388a3.125 3.125 0 0 1 4.862-3.927l9.198 11.388a3.125 3.125 0 0 1-.467 4.394z" fill="#1BA88D"/><path d="M28.125 20a8.125 8.125 0 1 1-16.25 0 8.125 8.125 0 0 1 16.25 0zM33.75 90a8.125 8.125 0 1 1-16.25 0 8.125 8.125 0 0 1 16.25 0zM85 84.375a8.125 8.125 0 1 1-16.25 0 8.125 8.125 0 0 1 16.25 0zM75 46.25a7.5 7.5 0 1 1-15 0 7.5 7.5 0 0 1 15 0zM45.625 53.125a7.5 7.5 0 1 1-15 0 7.5 7.5 0 0 1 15 0z" fill="#1BA88D"/><path d="M59.375 67.5a5 5 0 1 1-10 0 5 5 0 0 1 10 0zM54.375 37.5a3.75 3.75 0 1 1-7.5 0 3.75 3.75 0 0 1 7.5 0z" fill="#fff"/></svg>