<svg width="32" height="32" viewBox="0 0 32 32" fill="none" xmlns="http://www.w3.org/2000/svg">
<g clip-path="url(#clip0_1295_28440)">
<circle cx="16" cy="16" r="16" fill="#005087"/>
<path d="M7.41514 10.4754C7.82746 10.349 8.05665 10.6578 8.26001 11.0111C8.36921 11.2008 8.47221 11.3949 8.54538 11.6006C9.11778 13.2092 9.7087 14.8118 9.7554 16.5518C9.77177 17.1614 9.74375 17.7603 9.58018 18.3478C9.2203 19.6402 8.8246 20.9221 8.41586 22.1998C8.13411 23.0806 7.85137 23.9612 7.51541 24.8235C7.44793 24.9967 7.36185 25.1501 7.20981 25.2684C7.08544 25.3652 6.98813 25.4929 6.93283 25.645C6.87762 25.7967 6.92323 25.8704 7.08474 25.8751C7.27761 25.8808 7.47085 25.8755 7.66391 25.8734C8.03377 25.8693 8.1776 25.7462 8.15977 25.379C8.14579 25.091 8.22991 24.8394 8.3362 24.5856C8.71116 23.6901 9.13076 22.8147 9.52805 21.9292C9.80676 21.308 10.0983 20.6922 10.3284 20.0505C10.3763 19.9168 10.4069 19.7771 10.4522 19.6424C10.4884 19.5344 10.5734 19.4852 10.6847 19.4751C10.7951 19.465 10.8329 19.5455 10.8731 19.6227C10.8965 19.6677 10.9181 19.7139 10.9379 19.7606C11.7287 21.6289 12.392 23.5453 13.0872 25.4497C13.1177 25.5332 13.1108 25.6038 13.0666 25.6807C13.0066 25.7854 13.0512 25.8644 13.159 25.8903C13.4299 25.9555 13.7044 25.9573 13.9728 25.8796C14.1212 25.8367 14.1847 25.6604 14.0779 25.5667C13.8962 25.4072 13.8446 25.1895 13.7685 24.9829C13.1657 23.3474 12.607 21.6963 12.0406 20.048C11.9531 19.7933 11.8648 19.5389 11.7789 19.2836C11.7681 19.2515 11.7554 19.2051 11.7701 19.1825C11.7979 19.1397 11.8432 19.1739 11.8804 19.1843C11.9685 19.2087 12.0554 19.2376 12.1441 19.2596C13.0879 19.4929 14.0283 19.4527 14.9652 19.2193C16.0349 18.9528 17.103 18.6798 18.1739 18.4178C18.5087 18.3359 18.846 18.2518 19.1945 18.2512C19.5956 18.2504 19.8298 18.4713 19.8599 18.871C19.8781 19.1128 19.837 19.3473 19.7625 19.5764C19.552 20.2239 19.3441 20.8724 19.1285 21.5182C18.7214 22.7376 18.3274 23.9616 17.8503 25.1564C17.7753 25.3442 17.712 25.5351 17.4604 25.5718C17.3446 25.5887 17.3042 25.709 17.3049 25.8238C17.3057 25.9359 17.3859 25.9827 17.4804 26.0045C17.8547 26.091 18.188 26.0781 18.394 25.6113C18.6935 24.9324 18.9814 24.2488 19.2738 23.567C19.6804 22.6189 20.0823 21.6687 20.5582 20.7524C20.6895 20.4998 20.8241 20.2481 21.0086 20.0291C21.1547 19.8556 21.2429 19.8638 21.353 20.0574C21.4157 20.1676 21.4746 20.281 21.5244 20.3975C21.678 20.7573 21.8317 21.1172 21.976 21.4808C22.501 22.8032 22.9616 24.1504 23.5041 25.466C23.5475 25.5713 23.5644 25.6556 23.4994 25.7635C23.4111 25.9099 23.4723 26.0152 23.6424 26.022C23.8573 26.0305 24.0688 25.9926 24.2688 25.9138C24.4152 25.8561 24.4348 25.7625 24.3204 25.6614C24.2309 25.5823 24.1857 25.4864 24.1534 25.3783C24.0121 24.9061 23.8633 24.436 23.7307 23.9614C23.3575 22.6254 22.9948 21.2865 22.6194 19.9511C22.497 19.516 22.526 19.1305 22.8375 18.7713C23.0966 18.4726 23.3217 18.1441 23.5583 17.8261C24.1303 17.0572 24.2336 16.165 23.6354 15.4068C23.5793 15.3356 23.5914 15.2937 23.6711 15.2554C23.7947 15.196 23.9178 15.1348 24.0368 15.0668C24.5742 14.7597 25.0545 14.3919 25.3277 13.8132C25.6765 13.0743 25.4262 12.2347 24.7366 11.879C24.2578 11.6321 23.7483 11.5727 23.2279 11.7361C21.6621 12.2275 20.0986 12.7262 18.5326 13.217C17.7337 13.4673 16.9451 13.764 16.0937 13.7953C15.6115 13.8131 15.1268 13.8556 14.6807 13.6042C14.6418 13.5822 14.5948 13.573 14.5504 13.5628C14.3518 13.517 14.2331 13.5858 14.1641 13.7844C14.1058 13.9522 14.1573 14.0552 14.3491 14.1387C14.4233 14.171 14.5009 14.2015 14.58 14.2156C15.2583 14.3363 15.9413 14.3949 16.6266 14.2971C17.5653 14.1632 18.4709 13.8889 19.3753 13.6145C20.4306 13.2944 21.4769 12.9463 22.5087 12.5569C22.776 12.456 23.0398 12.3512 23.3252 12.3201C23.645 12.2853 23.9641 12.2748 24.2737 12.3904C24.8097 12.5905 25.0014 13.1022 24.7233 13.5994C24.6838 13.6699 24.6376 13.738 24.5863 13.8005C24.2234 14.2425 23.7446 14.529 23.2489 14.7924C23.1863 14.8256 23.1365 14.8209 23.0869 14.7658C22.9771 14.644 22.8304 14.5878 22.6769 14.5444C22.2954 14.4365 21.9024 14.4337 21.5122 14.433C20.6372 14.4315 19.7693 14.5478 18.8985 14.6153C17.9465 14.6891 16.9952 14.7715 16.0435 14.8487C15.1019 14.9252 14.1599 14.9968 13.2186 15.0764C12.6257 15.1265 12.1433 14.9257 11.7659 14.4674C11.5553 14.2115 11.4407 13.909 11.3269 13.6026C10.7639 12.0879 10.1957 10.5752 9.62455 9.06362C9.57202 8.92457 9.56068 8.81073 9.6494 8.67976C9.75496 8.52392 9.82224 8.34564 9.86072 8.15986C9.95315 7.71373 9.84499 7.33425 9.48066 7.04308C9.44989 7.01849 9.4172 6.97238 9.37771 6.99204C9.32192 7.01981 9.36265 7.07345 9.36938 7.11439C9.41498 7.39186 9.44295 7.67089 9.37424 7.94691C9.29246 8.27542 9.05683 8.45491 8.72336 8.46101C8.40506 8.46683 8.16719 8.29051 8.07019 7.9698C8.00024 7.7385 7.97905 7.5021 8.01139 7.26117C8.01771 7.21414 8.04775 7.14734 7.99498 7.12166C7.94579 7.09772 7.90566 7.15746 7.86885 7.18878C7.4892 7.51179 7.34911 7.92222 7.46025 8.40482C7.4969 8.56397 7.47017 8.63499 7.31878 8.70584C6.85836 8.9213 6.47532 9.25087 6.10269 9.58974C5.93523 9.74203 5.97672 9.88608 6.19693 9.95625C6.25432 9.97454 6.31593 9.98132 6.37618 9.98852C6.45696 9.99818 6.4958 10.0212 6.46133 10.1163C6.39347 10.3034 6.43313 10.3683 6.63182 10.415C6.86585 10.4699 7.10426 10.4809 7.41514 10.4754ZM14.5611 8.65479C15.592 8.65784 16.3683 7.89654 16.3736 6.87712C16.3791 5.83456 15.5782 5.00068 14.5707 5C13.551 4.99931 12.7032 5.84873 12.7065 6.86771C12.7096 7.8673 13.5237 8.65172 14.5611 8.65479ZM19.1327 5.84507C18.6552 6.1191 18.3991 6.95462 18.5608 7.61169C18.7516 8.38731 19.466 8.9824 20.2477 9.01686C20.8915 9.04524 21.6423 8.62829 21.7999 8.1607C21.05 8.53057 20.33 8.46179 19.6835 7.93628C19.0184 7.39565 18.9163 6.66955 19.1327 5.84507Z" fill="white"/>
</g>
<defs>
<clipPath id="clip0_1295_28440">
<rect width="32" height="32" fill="white"/>
</clipPath>
</defs>
</svg>
