<svg width="32" height="32" viewBox="0 0 32 32" fill="none" xmlns="http://www.w3.org/2000/svg">
<g clip-path="url(#clip0_1288_14264)">
<circle cx="16" cy="16" r="16" fill="#DC2626"/>
<path fill-rule="evenodd" clip-rule="evenodd" d="M13.6692 25.9998C11.2831 25.2353 9.42696 23.2866 8.79247 20.8453L8.7739 20.7061C8.37822 17.7385 9.81599 14.8262 12.4125 13.3358C14.5325 12.119 15.8397 9.86131 15.8397 7.41696V6.30957L17.1618 7.63166C19.1668 9.63659 19.7839 12.6434 18.7309 15.276C18.4232 16.0452 18.7974 16.9182 19.5665 17.2258C20.3357 17.5335 21.2087 17.1594 21.5163 16.3902C21.718 15.8862 21.8766 15.3725 21.9931 14.8539C22.7575 16.434 23.2783 17.9071 23.2783 18.9884C23.2783 22.2708 21.1298 25.0514 18.1625 26.0007C18.7243 25.4522 19.071 24.6692 19.071 23.7196C19.071 22.6474 18.3593 21.993 17.6848 21.3729C17.4878 21.1917 17.2939 21.0135 17.1219 20.8286C17.1863 21.0753 17.2769 21.3179 17.3942 21.5525C17.6413 22.0464 17.4411 22.6471 16.9472 22.8942C16.4532 23.1412 15.8525 22.9411 15.6055 22.4471C14.6808 20.5985 14.8365 18.4247 15.9453 16.7438C14.7002 17.9953 12.7616 20.4663 12.7616 23.7196C12.7616 24.6687 13.1079 25.4514 13.6692 25.9998Z" fill="white"/>
</g>
<defs>
<clipPath id="clip0_1288_14264">
<rect width="32" height="32" fill="white"/>
</clipPath>
</defs>
</svg>
