<svg width="32" height="32" viewBox="0 0 32 32" fill="none" xmlns="http://www.w3.org/2000/svg">
<g clip-path="url(#clip0_1208_12185)">
<circle cx="16" cy="16" r="16" fill="#FF820E"/>
<path d="M15 22.5003H18.5772C19.0012 22.5003 19.2769 22.0541 19.0873 21.6749C18.7237 20.9478 18.0007 20.469 17.1893 20.4183L13.1924 20.1684C11.4458 20.0591 9.71154 20.5256 8.25545 21.4964L6.76732 22.4885C6.33386 22.7774 6.19487 23.3508 6.44786 23.8061L8.06175 26.7112C8.30681 27.1523 8.85581 27.3221 9.30717 27.0965C10.7323 26.384 12.3466 26.1413 13.9182 26.4032L16.0066 26.7512C16.9689 26.9115 17.9566 26.7146 18.7839 26.1976L24.6316 22.543C25.0119 22.3053 24.9853 21.7428 24.5841 21.5422C23.9057 21.2029 23.1035 21.2203 22.4405 21.5887L19.8096 23.0505C19.2786 23.3455 18.6812 23.5003 18.0738 23.5003H15C14.7239 23.5003 14.5 23.2764 14.5 23.0003C14.5 22.7241 14.7239 22.5003 15 22.5003Z" fill="white"/>
<path fill-rule="evenodd" clip-rule="evenodd" d="M16 19C19.3137 19 22 16.3137 22 13C22 9.68629 19.3137 7 16 7C12.6863 7 10 9.68629 10 13C10 16.3137 12.6863 19 16 19ZM16.75 10C16.75 9.58579 16.4142 9.25 16 9.25C15.5858 9.25 15.25 9.58579 15.25 10V10.25H15C14.0335 10.25 13.25 11.0335 13.25 12C13.25 12.9665 14.0335 13.75 15 13.75H17C17.1381 13.75 17.25 13.8619 17.25 14C17.25 14.1381 17.1381 14.25 17 14.25H16H15.1009C14.8572 14.25 14.6188 14.1778 14.416 14.0426C14.0714 13.8129 13.6057 13.906 13.376 14.2506C13.1462 14.5953 13.2393 15.0609 13.584 15.2907C14.0332 15.5902 14.561 15.75 15.1009 15.75H15.25V16C15.25 16.4142 15.5858 16.75 16 16.75C16.4142 16.75 16.75 16.4142 16.75 16V15.75H17C17.9665 15.75 18.75 14.9665 18.75 14C18.75 13.0335 17.9665 12.25 17 12.25H15C14.8619 12.25 14.75 12.1381 14.75 12C14.75 11.8619 14.8619 11.75 15 11.75H16H16.8991C17.1428 11.75 17.3812 11.8222 17.584 11.9574C17.9286 12.1871 18.3943 12.094 18.624 11.7494C18.8538 11.4047 18.7607 10.9391 18.416 10.7093C17.9668 10.4098 17.439 10.25 16.8991 10.25H16.75V10Z" fill="white"/>
<path d="M24 13H25" stroke="white" stroke-width="1.5" stroke-linecap="round"/>
<path d="M7 13H8" stroke="white" stroke-width="1.5" stroke-linecap="round"/>
<path d="M9.5 7.5L10 8" stroke="white" stroke-width="1.5" stroke-linecap="round"/>
<path d="M16 5L16 5.5" stroke="white" stroke-width="1.5" stroke-linecap="round"/>
<path d="M22.5 7.5L22 8" stroke="white" stroke-width="1.5" stroke-linecap="round"/>
</g>
<defs>
<clipPath id="clip0_1208_12185">
<rect width="32" height="32" fill="white"/>
</clipPath>
</defs>
</svg>
