<svg width="32" height="32" viewBox="0 0 32 32" fill="none" xmlns="http://www.w3.org/2000/svg">
<g clip-path="url(#clip0_1295_32233)">
<circle cx="16" cy="16" r="16" fill="#18181B"/>
<path fill-rule="evenodd" clip-rule="evenodd" d="M19 21.3264C21.3649 20.2029 23 17.7924 23 15C23 11.134 19.866 8 16 8C12.134 8 9 11.134 9 15C9 17.7924 10.6351 20.2029 13 21.3264C14.2111 21.9017 17.7889 21.9017 19 21.3264ZM14.75 13.5C14.75 13.0858 15.0858 12.75 15.5 12.75H16H16.7929C17.0467 12.75 17.2902 12.8508 17.4697 13.0303C17.7626 13.3232 18.2374 13.3232 18.5303 13.0303C18.8232 12.7374 18.8232 12.2626 18.5303 11.9697C18.0695 11.5089 17.4446 11.25 16.7929 11.25H16.75V11C16.75 10.5858 16.4142 10.25 16 10.25C15.5858 10.25 15.25 10.5858 15.25 11V11.2637C14.125 11.3881 13.25 12.3419 13.25 13.5C13.25 14.7426 14.2574 15.75 15.5 15.75H16.5C16.9142 15.75 17.25 16.0858 17.25 16.5C17.25 16.9142 16.9142 17.25 16.5 17.25H16H15.2071C14.9533 17.25 14.7098 17.1492 14.5303 16.9697C14.2374 16.6768 13.7626 16.6768 13.4697 16.9697C13.1768 17.2626 13.1768 17.7374 13.4697 18.0303C13.9305 18.4911 14.5554 18.75 15.2071 18.75H15.25L15.25 19C15.25 19.4142 15.5858 19.75 16 19.75C16.4142 19.75 16.75 19.4142 16.75 19L16.75 18.7363C17.875 18.6119 18.75 17.6581 18.75 16.5C18.75 15.2574 17.7426 14.25 16.5 14.25H15.5C15.0858 14.25 14.75 13.9142 14.75 13.5Z" fill="white"/>
<path d="M13 21H19V25C19 26.1046 18.1046 27 17 27H15C13.8954 27 13 26.1046 13 25V21Z" stroke="white" stroke-width="1.5"/>
<path d="M13 21H19" stroke="white" stroke-linecap="round" stroke-linejoin="round"/>
<path d="M13 24H19" stroke="white" stroke-width="1.5" stroke-linecap="round" stroke-linejoin="round"/>
<path d="M24.5 15H26" stroke="white" stroke-width="1.5" stroke-linecap="round"/>
<path d="M6 15H7.5" stroke="white" stroke-width="1.5" stroke-linecap="round"/>
<path d="M9 9L9.5 9.5" stroke="white" stroke-width="1.5" stroke-linecap="round"/>
<path d="M16 5L16 6.5" stroke="white" stroke-width="1.5" stroke-linecap="round"/>
<path d="M23 9L22.5 9.5" stroke="white" stroke-width="1.5" stroke-linecap="round"/>
<path d="M23 21.5L22.5 21" stroke="white" stroke-width="1.5" stroke-linecap="round"/>
<path d="M9 21.5L9.5 21" stroke="white" stroke-width="1.5" stroke-linecap="round"/>
</g>
<defs>
<clipPath id="clip0_1295_32233">
<rect width="32" height="32" fill="white"/>
</clipPath>
</defs>
</svg>
