<svg width="32" height="32" viewBox="0 0 32 32" fill="none" xmlns="http://www.w3.org/2000/svg">
<g clip-path="url(#clip0_1208_11557)">
<circle cx="16" cy="16" r="16" fill="#2563EB"/>
<path fill-rule="evenodd" clip-rule="evenodd" d="M8 7C6.34315 7 5 8.34315 5 10V21C5 22.6569 6.34315 24 8 24H24C25.6569 24 27 22.6569 27 21V10C27 8.34315 25.6569 7 24 7H8ZM20.5 16C21.8807 16 23 14.8807 23 13.5C23 12.1193 21.8807 11 20.5 11C19.1193 11 18 12.1193 18 13.5C18 14.8807 19.1193 16 20.5 16ZM18.6667 17C17.1939 17 16 18.1939 16 19.6667C16 19.8508 16.1492 20 16.3333 20H24.6667C24.8508 20 25 19.8508 25 19.6667C25 18.1939 23.8061 17 22.3333 17H18.6667ZM9 12.25C8.58579 12.25 8.25 12.5858 8.25 13C8.25 13.4142 8.58579 13.75 9 13.75H13C13.4142 13.75 13.75 13.4142 13.75 13C13.75 12.5858 13.4142 12.25 13 12.25H9ZM8.25 16C8.25 15.5858 8.58579 15.25 9 15.25H15C15.4142 15.25 15.75 15.5858 15.75 16C15.75 16.4142 15.4142 16.75 15 16.75H9C8.58579 16.75 8.25 16.4142 8.25 16ZM9 18.25C8.58579 18.25 8.25 18.5858 8.25 19C8.25 19.4142 8.58579 19.75 9 19.75H13C13.4142 19.75 13.75 19.4142 13.75 19C13.75 18.5858 13.4142 18.25 13 18.25H9Z" fill="white"/>
</g>
<defs>
<clipPath id="clip0_1208_11557">
<rect width="32" height="32" fill="white"/>
</clipPath>
</defs>
</svg>
