<svg width="32" height="32" viewBox="0 0 32 32" fill="none" xmlns="http://www.w3.org/2000/svg">
<g clip-path="url(#clip0_1288_13709)">
<circle cx="16" cy="16" r="16" fill="#2563EB"/>
<path d="M16 19L16 26" stroke="white" stroke-width="1.5" stroke-linecap="round"/>
<path d="M25 20H23.3333C20.3878 20 18 22.3878 18 25.3333C18 25.7015 18.2985 26 18.6667 26H19C22.3137 26 25 23.3137 25 20Z" fill="white"/>
<path d="M7 19H8.66667C11.6122 19 14 21.3878 14 24.3333C14 24.7015 13.7015 25 13.3333 25H13C9.68629 25 7 22.3137 7 19Z" fill="white"/>
<path fill-rule="evenodd" clip-rule="evenodd" d="M16 20C19.3137 20 22 17.3137 22 14C22 10.6863 19.3137 8 16 8C12.6863 8 10 10.6863 10 14C10 17.3137 12.6863 20 16 20ZM16.75 11C16.75 10.5858 16.4142 10.25 16 10.25C15.5858 10.25 15.25 10.5858 15.25 11V11.25H15C14.0335 11.25 13.25 12.0335 13.25 13C13.25 13.9665 14.0335 14.75 15 14.75H17C17.1381 14.75 17.25 14.8619 17.25 15C17.25 15.1381 17.1381 15.25 17 15.25H16H15.1009C14.8572 15.25 14.6188 15.1778 14.416 15.0426C14.0714 14.8129 13.6057 14.906 13.376 15.2506C13.1462 15.5953 13.2393 16.0609 13.584 16.2907C14.0332 16.5902 14.561 16.75 15.1009 16.75H15.25V17C15.25 17.4142 15.5858 17.75 16 17.75C16.4142 17.75 16.75 17.4142 16.75 17V16.75H17C17.9665 16.75 18.75 15.9665 18.75 15C18.75 14.0335 17.9665 13.25 17 13.25H15C14.8619 13.25 14.75 13.1381 14.75 13C14.75 12.8619 14.8619 12.75 15 12.75H16H16.8991C17.1428 12.75 17.3812 12.8222 17.584 12.9574C17.9286 13.1871 18.3943 13.094 18.624 12.7494C18.8538 12.4047 18.7607 11.9391 18.416 11.7093C17.9668 11.4098 17.439 11.25 16.8991 11.25H16.75V11Z" fill="white"/>
<path d="M24 14H25" stroke="white" stroke-width="1.5" stroke-linecap="round"/>
<path d="M7 14H8" stroke="white" stroke-width="1.5" stroke-linecap="round"/>
<path d="M9.5 8.5L10 9" stroke="white" stroke-width="1.5" stroke-linecap="round"/>
<path d="M16 6L16 6.5" stroke="white" stroke-width="1.5" stroke-linecap="round"/>
<path d="M22.5 8.5L22 9" stroke="white" stroke-width="1.5" stroke-linecap="round"/>
</g>
<defs>
<clipPath id="clip0_1288_13709">
<rect width="32" height="32" fill="white"/>
</clipPath>
</defs>
</svg>
