<svg width="32" height="32" viewBox="0 0 32 32" fill="none" xmlns="http://www.w3.org/2000/svg">
<g clip-path="url(#clip0_1288_13737)">
<circle cx="16" cy="16" r="16" fill="#FF820E"/>
<path fill-rule="evenodd" clip-rule="evenodd" d="M16 10C12.6863 10 10 12.6863 10 16V20C10 23.3137 12.6863 26 16 26C19.3137 26 22 23.3137 22 20V16C22 12.6863 19.3137 10 16 10ZM14.75 16.5C14.75 16.0858 15.0858 15.75 15.5 15.75H16H16.7929C17.0467 15.75 17.2902 15.8508 17.4697 16.0303C17.7626 16.3232 18.2374 16.3232 18.5303 16.0303C18.8232 15.7374 18.8232 15.2626 18.5303 14.9697C18.0695 14.5089 17.4446 14.25 16.7929 14.25H16.75V14C16.75 13.5858 16.4142 13.25 16 13.25C15.5858 13.25 15.25 13.5858 15.25 14V14.2637C14.125 14.3881 13.25 15.3419 13.25 16.5C13.25 17.7426 14.2574 18.75 15.5 18.75H16.5C16.9142 18.75 17.25 19.0858 17.25 19.5C17.25 19.9142 16.9142 20.25 16.5 20.25H16H15.2071C14.9533 20.25 14.7098 20.1492 14.5303 19.9697C14.2374 19.6768 13.7626 19.6768 13.4697 19.9697C13.1768 20.2626 13.1768 20.7374 13.4697 21.0303C13.9305 21.4911 14.5554 21.75 15.2071 21.75H15.25V22C15.25 22.4142 15.5858 22.75 16 22.75C16.4142 22.75 16.75 22.4142 16.75 22V21.7363C17.875 21.6119 18.75 20.6581 18.75 19.5C18.75 18.2574 17.7426 17.25 16.5 17.25H15.5C15.0858 17.25 14.75 16.9142 14.75 16.5Z" fill="white"/>
<path fill-rule="evenodd" clip-rule="evenodd" d="M14.2482 10.3963L13.0255 6.6561C12.8997 6.27116 13.2598 5.90415 13.6471 6.02262L15.849 6.69623C15.9443 6.72539 16.0462 6.72539 16.1415 6.69623L18.3435 6.02262C18.7308 5.90414 19.0908 6.27116 18.965 6.6561L17.7424 10.3963C17.6752 10.6019 17.4834 10.741 17.2671 10.741H16.4957V8.24097C16.4957 7.96483 16.2719 7.74097 15.9957 7.74097C15.7196 7.74097 15.4957 7.96483 15.4957 8.24097V10.741H14.7234C14.5071 10.741 14.3154 10.6019 14.2482 10.3963Z" fill="white"/>
</g>
<defs>
<clipPath id="clip0_1288_13737">
<rect width="32" height="32" fill="white"/>
</clipPath>
</defs>
</svg>
