<svg width="32" height="32" viewBox="0 0 32 32" fill="none" xmlns="http://www.w3.org/2000/svg">
<g clip-path="url(#clip0_1208_11623)">
<circle cx="16" cy="16" r="16" fill="#3F3F46"/>
<path d="M22.4809 8.56713C22.4809 9.98492 21.3316 11.1343 19.9138 11.1343C19.7082 11.1343 19.5082 11.1101 19.3166 11.0644L18.5771 12.7458C19.8125 13.4594 20.6445 14.7934 20.6473 16.322L21.9697 16.5818C22.3473 15.6342 23.2731 14.9646 24.3553 14.9646C25.7731 14.9646 26.9225 16.1139 26.9225 17.5317C26.9225 18.9495 25.7731 20.0988 24.3553 20.0988C22.9375 20.0988 21.7882 18.9495 21.7882 17.5317C21.7882 17.5077 21.7885 17.4838 21.7892 17.4599L20.5519 17.2168C20.3263 18.2488 19.7155 19.1367 18.8776 19.7222L19.8445 21.49C20.0971 21.407 20.3669 21.362 20.6473 21.362C22.065 21.362 23.2144 22.5114 23.2144 23.9292C23.2144 25.3469 22.065 26.4963 20.6473 26.4963C19.2295 26.4963 18.0801 25.3469 18.0801 23.9292C18.0801 23.1127 18.4612 22.3854 19.0552 21.9152L18.0915 20.153C17.6046 20.3544 17.071 20.4656 16.5113 20.4656C15.5356 20.4656 14.6388 20.1277 13.9315 19.5626L11.4336 21.6901C11.6441 22.0626 11.7642 22.4929 11.7642 22.9512C11.7642 24.369 10.6148 25.5183 9.19705 25.5183C7.77927 25.5183 6.62992 24.369 6.62992 22.9512C6.62992 21.5334 7.77927 20.3841 9.19705 20.3841C9.83298 20.3841 10.4149 20.6153 10.8633 20.9983L13.2936 18.9284C12.7193 18.2182 12.3754 17.3141 12.3754 16.3296C12.3754 15.8328 12.463 15.3565 12.6236 14.9152L9.18649 11.9446C8.74474 12.3042 8.1811 12.5197 7.56713 12.5197C6.14934 12.5197 5 11.3704 5 9.95256C5 8.53478 6.14934 7.38543 7.56713 7.38543C8.98491 7.38543 10.1343 8.53478 10.1343 9.95256C10.1343 10.4328 10.0024 10.8822 9.77293 11.2666L13.0358 14.0867C13.7725 12.9476 15.0539 12.1937 16.5113 12.1937C16.9453 12.1937 17.3637 12.2605 17.7567 12.3845L18.4946 10.7066C17.8027 10.2467 17.3467 9.46019 17.3467 8.56713C17.3467 7.14934 18.496 6 19.9138 6C21.3316 6 22.4809 7.14934 22.4809 8.56713Z" fill="white"/>
</g>
<defs>
<clipPath id="clip0_1208_11623">
<rect width="32" height="32" fill="white"/>
</clipPath>
</defs>
</svg>
