<svg width="32" height="32" viewBox="0 0 32 32" fill="none" xmlns="http://www.w3.org/2000/svg">
<g clip-path="url(#clip0_1208_15507)">
<circle cx="16" cy="16" r="16" fill="#2563EB"/>
<circle cx="16" cy="16" r="9" stroke="white" stroke-width="1.5"/>
<mask id="mask0_1208_15507" style="mask-type:alpha" maskUnits="userSpaceOnUse" x="7" y="7" width="18" height="18">
<circle cx="16" cy="16" r="9" fill="white"/>
</mask>
<g mask="url(#mask0_1208_15507)">
<path d="M16 7.00195V25.002" stroke="white" stroke-width="1.5" stroke-linecap="round"/>
<path d="M7 16.002L25 16.002" stroke="white" stroke-width="1.5" stroke-linecap="round"/>
<path d="M25.818 4.5459C25.818 8.61272 21.4223 11.9095 15.9998 11.9095C10.5774 11.9095 6.18164 8.61272 6.18164 4.5459" stroke="white" stroke-width="1.5"/>
<path d="M25.818 27.4545C25.818 23.3876 21.4223 20.0908 15.9998 20.0908C10.5774 20.0908 6.18164 23.3876 6.18164 27.4545" stroke="white" stroke-width="1.5"/>
<path d="M18.4535 25.819C14.3867 25.819 11.0898 21.4232 11.0898 16.0008C11.0898 10.5784 14.3867 6.18262 18.4535 6.18262" stroke="white" stroke-width="1.5"/>
<path d="M13.5446 25.82C17.6114 25.82 20.9082 21.4242 20.9082 16.0018C20.9082 10.5793 17.6114 6.18359 13.5446 6.18359" stroke="white" stroke-width="1.5"/>
</g>
</g>
<defs>
<clipPath id="clip0_1208_15507">
<rect width="32" height="32" fill="white"/>
</clipPath>
</defs>
</svg>
