<svg width="32" height="32" viewBox="0 0 32 32" fill="none" xmlns="http://www.w3.org/2000/svg">
<g clip-path="url(#clip0_1295_29140)">
<circle cx="16" cy="16" r="16" fill="#3F3F46"/>
<path fill-rule="evenodd" clip-rule="evenodd" d="M11 7.5C11 6.67157 11.6716 6 12.5 6H18V9C18 10.1046 18.8954 11 20 11H23V21.5C23 22.3284 22.3284 23 21.5 23H12.5C11.6716 23 11 22.3284 11 21.5V7.5ZM15.75 14.5C15.75 14.0858 16.0858 13.75 16.5 13.75H17H17.7929C18.0467 13.75 18.2902 13.8508 18.4697 14.0303C18.7626 14.3232 19.2374 14.3232 19.5303 14.0303C19.8232 13.7374 19.8232 13.2626 19.5303 12.9697C19.0695 12.5089 18.4446 12.25 17.7929 12.25H17.75V12C17.75 11.5858 17.4142 11.25 17 11.25C16.5858 11.25 16.25 11.5858 16.25 12V12.2637C15.125 12.3881 14.25 13.3419 14.25 14.5C14.25 15.7426 15.2574 16.75 16.5 16.75H17.5C17.9142 16.75 18.25 17.0858 18.25 17.5C18.25 17.9142 17.9142 18.25 17.5 18.25H17H16.2071C15.9533 18.25 15.7098 18.1492 15.5303 17.9697C15.2374 17.6768 14.7626 17.6768 14.4697 17.9697C14.1768 18.2626 14.1768 18.7374 14.4697 19.0303C14.9305 19.4911 15.5554 19.75 16.2071 19.75H16.25L16.25 20C16.25 20.4142 16.5858 20.75 17 20.75C17.4142 20.75 17.75 20.4142 17.75 20L17.75 19.7363C18.875 19.6119 19.75 18.6581 19.75 17.5C19.75 16.2574 18.7426 15.25 17.5 15.25H16.5C16.0858 15.25 15.75 14.9142 15.75 14.5Z" fill="white"/>
<path d="M22.5 11L18 6.5V9C18 10.1046 18.8954 11 20 11H22.5Z" stroke="white" stroke-linejoin="round"/>
<path d="M9 9V22C9 23.6569 10.3431 25 12 25H21" stroke="white" stroke-width="1.5" stroke-linecap="round" stroke-linejoin="round"/>
</g>
<defs>
<clipPath id="clip0_1295_29140">
<rect width="32" height="32" fill="white"/>
</clipPath>
</defs>
</svg>
