<svg width="32" height="32" viewBox="0 0 32 32" fill="none" xmlns="http://www.w3.org/2000/svg">
<g clip-path="url(#clip0_1291_15356)">
<circle cx="16" cy="16" r="16" fill="#DC2626"/>
<path fill-rule="evenodd" clip-rule="evenodd" d="M10 8C10 6.89543 10.8954 6 12 6H20C21.1046 6 22 6.89543 22 8V25H18V21C18 20.4477 17.5523 20 17 20H15C14.4477 20 14 20.4477 14 21V25H10V8ZM16 17C18.7614 17 21 14.7614 21 12C21 9.23858 18.7614 7 16 7C13.2386 7 11 9.23858 11 12C11 14.7614 13.2386 17 16 17ZM15 9V11H13V13H15V15H17V13H19V11H17V9H15Z" fill="white"/>
<path d="M23 14H25C25.5523 14 26 14.4477 26 15V25H23V14Z" fill="white"/>
<path d="M6 15C6 14.4477 6.44772 14 7 14H9V25H6V15Z" fill="white"/>
</g>
<defs>
<clipPath id="clip0_1291_15356">
<rect width="32" height="32" fill="white"/>
</clipPath>
</defs>
</svg>
