<svg width="32" height="32" viewBox="0 0 32 32" fill="none" xmlns="http://www.w3.org/2000/svg">
<g clip-path="url(#clip0_1208_11571)">
<circle cx="16" cy="16" r="16" fill="#16A34A"/>
<path fill-rule="evenodd" clip-rule="evenodd" d="M11.7269 13.6734C9.96309 11.3154 10.498 8.28477 12.3592 6.53181C12.4193 8.33975 13.7913 10.5396 14.5756 11.5312L16 13.4354L18.2256 16.4108L18.7332 17.0894C20.3396 19.2371 21.5903 21.6304 22.437 24.1773L23 25.8709L20.748 24.7418L19.6218 27L19.0588 25.3064C18.3536 23.185 17.3213 21.188 16 19.3876L13.7744 16.4108L11.7269 13.6734ZM18.8585 15.5647L20.2731 13.6734C22.0194 11.3389 21.5124 8.34503 19.696 6.58453C19.5851 8.10066 18.2308 10.3905 17.4244 11.5312L16.5936 12.6418L18.8585 15.5647ZM13.0853 17.3352L15.4066 20.2386C14.3666 21.81 13.5371 23.5138 12.9412 25.3064L12.3782 27L11.2522 24.7418L9 25.8709L9.56303 24.1773C10.3776 21.7272 11.5659 19.4192 13.0853 17.3352ZM18.8585 5.92268C18.0526 5.40968 17.0835 5.10435 16 5.10435C14.9714 5.10435 14.0459 5.37953 13.2653 5.84634C13.2879 6.60743 13.4611 7.78373 13.9939 8.76008C14.5756 8.3163 15.0512 8.07998 16.0001 8.07998C16.9908 8.07998 17.4244 8.33211 17.9691 8.76008C18.6161 7.75671 18.8768 6.71544 18.8585 5.92268Z" fill="white"/>
</g>
<defs>
<clipPath id="clip0_1208_11571">
<rect width="32" height="32" fill="white"/>
</clipPath>
</defs>
</svg>
