<svg width="32" height="32" viewBox="0 0 32 32" fill="none" xmlns="http://www.w3.org/2000/svg">
<g clip-path="url(#clip0_1291_15022)">
<circle cx="16" cy="16" r="16" fill="#18181B"/>
<path fill-rule="evenodd" clip-rule="evenodd" d="M16.0001 6.37207L15.8703 6.51809C15.2561 7.20905 14.4596 7.71286 13.5721 7.97171C12.3822 8.31877 11.1051 8.20361 9.99642 7.64929L9.73942 7.52079C9.64001 7.47108 9.523 7.47108 9.42359 7.52079L7.8872 8.28899C7.64541 8.40988 7.55482 8.70907 7.68894 8.94377C8.87874 11.0259 9.00623 13.5501 8.03226 15.7416L7.29621 17.3977C6.26708 19.7132 7.62296 22.39 10.0986 22.9303L12.8163 23.5233C14.1976 23.8247 15.3681 24.7353 16.0001 26C16.6329 24.7352 17.8039 23.8247 19.1856 23.5231L21.9017 22.9304C24.3773 22.39 25.7331 19.7133 24.704 17.3978L23.9679 15.7416C22.9939 13.5501 23.1214 11.0259 24.3112 8.94377C24.4453 8.70907 24.3547 8.40988 24.113 8.28899L22.5687 7.51688C22.4743 7.46964 22.363 7.46964 22.2686 7.51688L22.2064 7.54793C20.9724 8.16495 19.5438 8.26648 18.2349 7.83018C17.4687 7.57479 16.7725 7.14453 16.2015 6.57346L16.0001 6.37207ZM16.0001 21.3487C18.9541 21.3487 21.3489 18.954 21.3489 15.9999C21.3489 13.0459 18.9541 10.6511 16.0001 10.6511C13.046 10.6511 10.6513 13.0459 10.6513 15.9999C10.6513 18.954 13.046 21.3487 16.0001 21.3487Z" fill="white"/>
<path d="M15.7163 11.8264C15.809 11.5563 16.191 11.5563 16.2837 11.8264L17.1803 14.4377H20.0341C20.3287 14.4377 20.4469 14.818 20.2041 14.9849L17.9098 16.5623L18.7951 19.1405C18.889 19.414 18.5797 19.649 18.3414 19.4852L16 17.8754L13.6586 19.4852C13.4203 19.649 13.111 19.414 13.2049 19.1405L14.0902 16.5623L11.7959 14.9849C11.5531 14.818 11.6713 14.4377 11.9659 14.4377H14.8197L15.7163 11.8264Z" fill="white"/>
</g>
<defs>
<clipPath id="clip0_1291_15022">
<rect width="32" height="32" fill="white"/>
</clipPath>
</defs>
</svg>
