<svg width="32" height="32" viewBox="0 0 32 32" fill="none" xmlns="http://www.w3.org/2000/svg">
<g clip-path="url(#clip0_1208_11552)">
<circle cx="16" cy="16" r="16" fill="#7C3AED"/>
<path d="M20.722 12.8611C20.722 15.5557 19.1686 17.8875 16.9086 19.0099L13.861 21.0417V16.5556C15.9013 16.5556 17.5554 14.9015 17.5554 12.8611C17.5554 10.8207 15.9013 9.16667 13.861 9.16667C11.8206 9.16667 10.1666 10.8207 10.1666 12.8611V22.8889L7 25V12.8611C7 9.07182 10.0718 6 13.861 6C17.6502 6 20.722 9.07182 20.722 12.8611Z" fill="white"/>
<path d="M18.6109 19.1944L8.5833 25H19.1387L19.1382 24.9948C22.9513 24.8564 26 21.7215 26 17.8746C26 14.9139 24.1942 12.3749 21.6239 11.2992C21.7249 11.804 21.7779 12.3262 21.7779 12.8607C21.7779 15.4509 20.5339 17.7501 18.6109 19.1944Z" fill="white"/>
</g>
<defs>
<clipPath id="clip0_1208_11552">
<rect width="32" height="32" fill="white"/>
</clipPath>
</defs>
</svg>
