<svg width="100" height="100" viewBox="0 0 100 100" fill="none" xmlns="http://www.w3.org/2000/svg">
<g clip-path="url(#clip0_889_18960)">
<path fill-rule="evenodd" clip-rule="evenodd" d="M82.8579 47.7727C82.8579 60.5679 75.5254 69.7711 64.8331 74.0667V74.7098C64.8331 79.128 61.2514 82.7098 56.8331 82.7098H43.3377C38.9194 82.7098 35.3377 79.128 35.3377 74.7098V74.0669C24.6452 69.7714 17.3125 60.568 17.3125 47.7727C17.3125 29.6728 31.9853 15 50.0852 15C68.1851 15 82.8579 29.6728 82.8579 47.7727ZM35.3392 61.0708C40.4675 61.0708 44.6248 56.9135 44.6248 51.7852C44.6248 46.6569 40.4675 42.4996 35.3392 42.4996C30.2109 42.4996 26.0536 46.6569 26.0536 51.7852C26.0536 56.9135 30.2109 61.0708 35.3392 61.0708ZM73.5732 51.7852C73.5732 56.9135 69.4159 61.0708 64.2876 61.0708C59.1593 61.0708 55.002 56.9135 55.002 51.7852C55.002 46.6569 59.1593 42.4996 64.2876 42.4996C69.4159 42.4996 73.5732 46.6569 73.5732 51.7852ZM55.2895 68.6546L50.0861 59.6421L44.8827 68.6546H55.2895Z" fill="#0F172A"/>
<path fill-rule="evenodd" clip-rule="evenodd" d="M14.1023 21.1734C12.6349 22.9026 10.4456 24 8 24C3.58172 24 0 20.4183 0 16C0 11.5817 3.58172 8 8 8C8 3.58172 11.5817 0 16 0C20.4183 0 24 3.58172 24 8C24 10.4456 22.9026 12.6349 21.1734 14.1023L26.0708 18.9998L18.9998 26.0708L14.1023 21.1734Z" fill="#0F172A"/>
<path fill-rule="evenodd" clip-rule="evenodd" d="M78.8262 14.1023C77.0969 12.6349 75.9996 10.4456 75.9996 8C75.9996 3.58172 79.5813 0 83.9996 0C88.4178 0 91.9996 3.58172 91.9996 8C96.4178 8 99.9996 11.5817 99.9996 16C99.9996 20.4183 96.4178 24 91.9996 24C89.554 24 87.3647 22.9026 85.8972 21.1734L80.9998 26.0708L73.9287 18.9998L78.8262 14.1023Z" fill="#0F172A"/>
<path fill-rule="evenodd" clip-rule="evenodd" d="M78.8262 85.8977L70.9287 78.0003L77.9998 70.9292L85.8972 78.8266C87.3647 77.0974 89.554 76 91.9996 76C96.4178 76 99.9996 79.5818 99.9996 84C99.9996 88.4183 96.4178 92 91.9996 92C91.9996 96.4183 88.4178 100 83.9996 100C79.5813 100 75.9996 96.4183 75.9996 92C75.9996 89.5544 77.0969 87.3651 78.8262 85.8977Z" fill="#0F172A"/>
<path fill-rule="evenodd" clip-rule="evenodd" d="M21.1734 85.8977C22.9026 87.3651 24 89.5544 24 92C24 96.4183 20.4183 100 16 100C11.5817 100 8 96.4183 8 92C3.58172 92 0 88.4183 0 84C0 79.5818 3.58172 76 8 76C10.4456 76 12.6349 77.0974 14.1023 78.8266L21.9998 70.9292L29.0708 78.0003L21.1734 85.8977Z" fill="#0F172A"/>
</g>
<defs>
<clipPath id="clip0_889_18960">
<rect width="100" height="100" fill="white"/>
</clipPath>
</defs>
</svg>
