<svg width="100" height="100" viewBox="0 0 100 100" fill="none" xmlns="http://www.w3.org/2000/svg">
<path d="M49.6834 5.69629L5.87014 41.9806C4.95683 42.737 5.49167 44.2213 6.67752 44.2213H10.9176V94.3039H88.4493V44.2213H92.6894C93.8752 44.2213 94.4101 42.737 93.4967 41.9806L49.6834 5.69629Z" fill="#F2C56E"/>
<path d="M72.1518 64.5716C72.1518 76.7978 62.0924 86.709 49.6836 86.709C37.2748 86.709 27.2155 76.7978 27.2155 64.5716C27.2155 59.9056 27.2148 52.8482 27.2148 52.8482C27.2148 52.8482 42.0105 36.709 49.6835 36.709C58.4564 36.709 72.1516 42.0936 72.1516 42.0936C72.1516 42.0936 72.1518 60.9893 72.1518 64.5716Z" fill="white"/>
<path fill-rule="evenodd" clip-rule="evenodd" d="M42.4046 57.9116C43.6281 57.9116 44.6198 58.9034 44.6198 60.1268V65.1901C44.6198 66.4135 43.6281 67.4053 42.4046 67.4053C41.1812 67.4053 40.1895 66.4135 40.1895 65.1901V60.1268C40.1895 58.9034 41.1812 57.9116 42.4046 57.9116ZM57.5945 57.9116C58.8179 57.9116 59.8097 58.9034 59.8097 60.1268V65.1901C59.8097 66.4135 58.8179 67.4053 57.5945 67.4053C56.3711 67.4053 55.3793 66.4135 55.3793 65.1901V60.1268C55.3793 58.9034 56.3711 57.9116 57.5945 57.9116Z" fill="#64748B"/>
<path d="M67.7217 63.9239C67.7217 61.8266 69.4219 60.1265 71.5191 60.1265C73.6164 60.1265 75.3166 61.8266 75.3166 63.9239V67.7214C75.3166 69.8187 73.6164 71.5189 71.5191 71.5189C69.4219 71.5189 67.7217 69.8187 67.7217 67.7214V63.9239Z" fill="white"/>
<path d="M23.418 63.9239C23.418 61.8266 25.1182 60.1265 27.2154 60.1265C29.3127 60.1265 31.0129 61.8266 31.0129 63.9239V67.7214C31.0129 69.8187 29.3127 71.5189 27.2154 71.5189C25.1182 71.5189 23.418 69.8187 23.418 67.7214V63.9239Z" fill="white"/>
<path d="M77.2148 34.8101H45.3967C35.3551 34.8101 27.2148 43.0276 27.2148 53.1645H59.033C69.0746 53.1645 77.2148 44.9469 77.2148 34.8101Z" fill="#64748B"/>
<path fill-rule="evenodd" clip-rule="evenodd" d="M31.4199 77.4683L37.9743 70.8862H49.6832H61.392L68.0052 77.3886C63.9329 83.0294 57.2444 86.709 49.6836 86.709C42.1585 86.709 35.4975 83.0641 31.4199 77.4683Z" fill="#55C0D8"/>
</svg>
