<svg width="100" height="100" fill="none" xmlns="http://www.w3.org/2000/svg"><path d="M79.747 51.382c0 16.714-13.885 30.263-31.012 30.263-17.128 0-31.012-13.55-31.012-30.263l-.001-16.027S38.144 13.29 48.735 13.29c12.109 0 31.012 7.361 31.012 7.361v30.73z" fill="#fff"/><path d="M73.418 50.633c0-2.796 2.409-5.063 5.38-5.063 2.97 0 5.38 2.267 5.38 5.063v5.063c0 2.797-2.41 5.064-5.38 5.064-2.971 0-5.38-2.267-5.38-5.064v-5.063zM12.658 50.633c0-2.796 2.409-5.063 5.38-5.063s5.38 2.267 5.38 5.063v5.063c0 2.797-2.409 5.064-5.38 5.064s-5.38-2.267-5.38-5.064v-5.063z" fill="#fff"/><path d="M86.709 10.76H42.808c-13.855 0-25.086 11.334-25.086 25.316h43.9c13.856 0 25.087-11.335 25.087-25.317z" fill="#64748B"/><path fill-rule="evenodd" clip-rule="evenodd" d="M26.78 46.259a2.612 2.612 0 0 1 3.671.135 5.11 5.11 0 0 0 7.452 0 2.612 2.612 0 0 1 3.672-.135 2.566 2.566 0 0 1 .136 3.645c-4.068 4.348-11 4.348-15.067 0a2.566 2.566 0 0 1 .136-3.645zM57.16 46.259a2.612 2.612 0 0 1 3.671.135 5.11 5.11 0 0 0 7.451 0 2.612 2.612 0 0 1 3.672-.135 2.566 2.566 0 0 1 .137 3.645c-4.068 4.348-11 4.348-15.068 0a2.566 2.566 0 0 1 .136-3.645z" fill="#64748B"/><path d="m30.484 69.19 10.584-14.373c4.109-5.579 12.49-5.579 16.599 0L68.25 69.19c4.97 6.751.119 16.253-8.3 16.253H38.784c-8.419 0-13.27-9.502-8.3-16.253z" fill="#55C0D8"/><path d="M58.86 68.671c0 5.418-4.533 9.81-10.126 9.81-5.593 0-10.127-4.392-10.127-9.81s4.534-9.81 10.127-9.81c5.593 0 10.127 4.392 10.127 9.81z" fill="#fff"/><path d="M42.405 69.41c0-3.38 2.834-6.119 6.33-6.119 3.495 0 6.328 2.74 6.328 6.118V100H42.405V69.41z" fill="#D9D9D9"/><path d="M42.405 69.62h12.658v3.798H42.405V69.62zM42.405 79.114h12.658v3.797H42.405v-3.797zM42.405 88.607h12.658v3.798H42.405v-3.798z" fill="#ADADAD"/></svg>