<svg width="100" height="100" viewBox="0 0 100 100" fill="none" xmlns="http://www.w3.org/2000/svg">
<path fill-rule="evenodd" clip-rule="evenodd" d="M70.8864 9.49347H29.1143C24.9197 9.49347 21.5193 12.8938 21.5193 17.0884V40.5061H78.4814V17.0884C78.4814 12.8938 75.081 9.49347 70.8864 9.49347ZM29.1143 4.43018C22.1233 4.43018 16.4561 10.0975 16.4561 17.0884V45.5694H83.5447V17.0884C83.5447 10.0975 77.8774 4.43018 70.8864 4.43018H29.1143Z" fill="#64748B"/>
<path fill-rule="evenodd" clip-rule="evenodd" d="M35.127 41.139V4.43018H39.5573V41.139H35.127ZM60.4434 41.139V4.43018H64.8738V41.139H60.4434Z" fill="#64748B"/>
<path d="M29.0816 20.5225L-nan -nanL29.0816 20.5225C42.9763 18.4756 57.0228 18.4756 70.9175 20.5225L-nan -nanL70.9175 20.5225L-nan -nanL70.9175 20.5225C72.5628 31.0074 72.5628 41.7773 70.9175 52.2623L-nan -nanL70.9175 52.2623L-nan -nanL70.9175 52.2623C57.0228 54.3092 42.9763 54.3092 29.0816 52.2623L-nan -nanL29.0816 52.2623L-nan -nanL29.0816 52.2623C27.4363 41.7773 27.4363 31.0074 29.0816 20.5225L-nan -nanL29.0816 20.5225Z" fill="#94A3B8"/>
<path d="M12.0254 42.4053C12.0254 38.9098 14.859 36.0762 18.3545 36.0762H81.6456C85.1411 36.0762 87.9748 38.9098 87.9748 42.4053V84.8103H12.0254V42.4053Z" fill="#E2E8F0"/>
<path d="M12.0254 72.1519C12.0254 68.6564 14.859 65.8228 18.3545 65.8228H81.6456C85.1411 65.8228 87.9748 68.6564 87.9748 72.1519V88.6076H12.0254V72.1519Z" fill="#94A3B8"/>
<path fill-rule="evenodd" clip-rule="evenodd" d="M9.49414 68.9872C9.49414 60.5981 16.2949 53.7974 24.684 53.7974H75.3169C83.7061 53.7974 90.5068 60.5981 90.5068 68.9872V95.5695C90.5068 96.9677 89.3733 98.1012 87.9752 98.1012C86.577 98.1012 85.4435 96.9677 85.4435 95.5695V68.9872C85.4435 63.3945 80.9097 58.8607 75.3169 58.8607H24.684C19.0913 58.8607 14.5574 63.3945 14.5574 68.9872V95.5695C14.5574 96.9677 13.424 98.1012 12.0258 98.1012C10.6276 98.1012 9.49414 96.9677 9.49414 95.5695V68.9872Z" fill="#64748B"/>
<path fill-rule="evenodd" clip-rule="evenodd" d="M33.2275 88.6076V56.3291H37.6579V88.6076H33.2275ZM62.3415 88.6076V56.3291H66.7718V88.6076H62.3415Z" fill="#64748B"/>
<path d="M12.0254 79.7471H87.9748V88.6078H12.0254V79.7471Z" fill="#64748B"/>
</svg>
