<svg width="100" height="100" viewBox="0 0 100 100" fill="none" xmlns="http://www.w3.org/2000/svg">
<path d="M91.1388 53.6565V14.5408C91.1388 14.5408 78.3142 14.2389 70.5692 11.6922C61.8797 8.83483 49.9996 0 49.9996 0C49.9996 0 38.1195 8.83483 29.43 11.6922C21.685 14.2389 8.86035 14.5408 8.86035 14.5408V53.6565C8.86035 84.9065 49.9996 100 49.9996 100C49.9996 100 91.1388 84.9065 91.1388 53.6565Z" fill="#61BD80"/>
<circle cx="49.6834" cy="49.6834" r="30.0633" fill="white"/>
<path fill-rule="evenodd" clip-rule="evenodd" d="M55.7343 30.3799H44.2097V44.2095H30.3799L30.3799 55.7341H44.2097V68.9875H55.7343V55.7341H68.9875V44.2095H55.7343V30.3799Z" fill="#61BD80"/>
</svg>
