<svg width="315" height="250" viewBox="0 0 315 250" fill="none" xmlns="http://www.w3.org/2000/svg">
<path fill-rule="evenodd" clip-rule="evenodd" d="M257.864 45.3038L259.469 45.4972L276.012 41.2947L276.662 49.4361L283.992 114.15H282.229L283.179 115.065L283.353 115.234L283.324 115.475L280.301 139.931L282.057 167.572L282.108 167.828L282.109 167.837L282.111 167.847L293.129 239.486L315 242.974V250H0.0644112L0 249.034L37.3007 244.062L39.6536 136.009L39.4708 135.305C39.1637 134.122 38.0967 133.296 36.8754 133.296H36.3904V130.752H50.4216V133.296H49.9367C48.7154 133.296 47.6483 134.122 47.3413 135.305L47.1575 136.009L49.4754 242.439L79.1263 238.487L83.7544 93.4545L83.7686 92.9843H86.7249V120.028H86.9181V92.9843H106.503V120.028H106.696V92.9843H109.603L115.332 236.596L139.659 238.133V222.677H154.764V239.088L154.859 239.094C155.189 239.115 155.519 239.131 155.849 239.147V170.795H142.666V149.633H175.081V181.073H186.528V179.303H201.633V199.748H186.528V187.355H183.942L186.435 193.624L186.469 193.71V201.033L185.56 201.267L180.684 192.426L175.081 202.475V238.233L186.528 237.279V222.677H201.633V236.019L202.136 235.977V170.795H189.536V149.633H221.95V234.325L238.014 232.986C240.429 232.785 242.85 232.697 245.269 232.721L247.326 220.175L248.885 188.619L247.222 171.399L247.236 171.33L249.107 161.498L249.045 161.486L250.238 128.722L248.442 114.308L248.435 114.249L248.442 114.189L252.605 80.2612L249.652 49.5376L249.651 49.5243L249.285 44.2714L252.777 44.6914L255.102 0.459778L255.126 0H257.276L257.864 45.3038ZM170.325 211.006L170.187 211.255H168.734L167.162 238.893L171.009 238.573V209.779L170.325 211.006ZM255.619 233.512C256.008 233.568 256.397 233.628 256.786 233.69L272.658 236.221L265.206 172.101L255.619 233.512ZM215.261 234.883L217.878 234.664V175.977L215.261 234.883ZM250.622 196.517L252.866 222.337L253.223 177.317L250.622 196.517ZM168.951 207.425L171.009 202.561V187.355H170.092L168.951 207.425ZM175.081 192.934L177.441 187.355H175.081V192.934ZM170.449 181.073H171.009V171.215L170.449 181.073ZM248.233 171.774L248.24 171.843L248.59 171.672L248.233 171.774ZM90.2258 169.384H92.4139V168.112H90.2258V169.384ZM95.6705 169.384H97.9675V168.112H95.6705V169.384ZM101.043 169.384H103.231V168.112H101.043V169.384ZM260.271 168.523L265.228 168.021L265.244 168.019H265.26L272.545 167.758L265.322 167.243L260.271 168.523ZM260.279 112.864L265.356 162.746L272.59 111.832L260.279 112.864ZM250.709 113.62L252.623 138.035L253.445 143.819L253.446 143.845L253.997 161.475L258.648 108.222L250.709 113.62ZM276.279 136.258L279.249 117.873L273.773 112.599L276.279 136.258ZM273.686 110.973L279.897 112.985L277.962 77.6125L273.686 110.973ZM259.769 106.902L272.596 110.641L267.638 60.0129L259.769 106.902ZM253.378 73.9599L256.317 50.0154L257.282 50.0533L259.46 101.453L265.939 49.9765H252.456L253.378 73.9599Z" fill="#C6D2E0"/>
<path d="M154.764 221.877H139.659V200.547H154.764V221.877Z" fill="#C6D2E0"/>
<path d="M201.633 221.877H186.528V200.547H201.633V221.877Z" fill="#C6D2E0"/>
<path d="M154.764 199.748H139.659V179.303H154.764V199.748Z" fill="#C6D2E0"/>
<path d="M154.764 178.503H138.17V172.222H154.764V178.503Z" fill="#C6D2E0"/>
<path d="M201.633 178.503H185.04V172.222H201.633V178.503Z" fill="#C6D2E0"/>
<path d="M171.588 148.407H167.334V128.908L165.297 148.407H146.16V114.906H171.588V148.407Z" fill="#C6D2E0"/>
<path d="M218.457 114.906V148.407H214.203V128.77L212.121 148.407H193.03V114.906H218.457Z" fill="#C6D2E0"/>
<path d="M14.8212 140.219C17.7591 140.219 19.1208 141.683 19.5317 142.783C21.1387 142.879 22.298 143.608 23.0867 144.503C23.7853 145.296 24.1908 146.219 24.3834 146.95H25.6859C25.9537 146.95 26.1708 147.167 26.1708 147.435C26.1707 147.703 25.9536 147.921 25.6859 147.921H5.88794C5.62014 147.921 5.40304 147.703 5.40296 147.435C5.40296 147.167 5.62009 146.95 5.88794 146.95H8.21906C8.176 146.48 8.21744 146.059 8.33462 145.685C8.49963 145.16 8.80312 144.758 9.16628 144.46C9.70227 144.022 10.3639 143.811 10.9281 143.735C10.9322 143.128 11.0783 142.392 11.5069 141.743C12.0883 140.862 13.1377 140.219 14.8212 140.219Z" fill="#C6D2E0"/>
<path d="M124.028 131.356C126.05 131.017 127.437 131.488 128.326 132.336C129.029 133.006 129.369 133.868 129.502 134.615C130.936 134.519 131.927 135.046 132.555 135.831C133.087 136.496 133.328 137.307 133.405 137.976H135.161C135.429 137.976 135.646 138.193 135.646 138.462C135.646 138.729 135.429 138.947 135.161 138.947H118.857C118.589 138.947 118.372 138.729 118.372 138.462C118.372 138.194 118.589 137.976 118.857 137.976H120.791C120.686 137.698 120.607 137.392 120.558 137.077C120.45 136.39 120.459 135.595 120.628 134.819C120.965 133.266 121.972 131.701 124.028 131.356Z" fill="#C6D2E0"/>
<path d="M296.482 131.302C297.667 131.128 298.517 131.364 299.082 131.836C299.464 132.154 299.679 132.552 299.789 132.924C300.565 132.916 301.137 133.185 301.521 133.605C301.804 133.915 301.958 134.28 302.033 134.611H302.869C303.137 134.611 303.354 134.828 303.354 135.096C303.354 135.364 303.136 135.581 302.869 135.582H293.551C293.283 135.581 293.066 135.364 293.066 135.096C293.066 134.828 293.283 134.611 293.551 134.611H294.354C294.341 134.558 294.33 134.505 294.32 134.452C294.252 134.072 294.258 133.636 294.364 133.21C294.58 132.34 295.226 131.487 296.482 131.302Z" fill="#C6D2E0"/>
<path d="M54.364 123.861H53.8193L52.8437 126.679L52.731 127.006H52.1863L51.2116 129.824L51.098 130.15H35.7141L35.6004 129.824L34.6257 127.006H34.0811L33.9684 126.679L32.9927 123.861H32.449L32.3354 123.534L31.2963 120.531H55.5158L54.364 123.861Z" fill="#C6D2E0"/>
<path d="M56.0453 119.929H30.7668L29.7485 115.027H57.0636L56.0453 119.929Z" fill="#C6D2E0"/>
<path d="M44.69 102.446H47.1566V107.164H47.9731V109.523H52.8712V112.066H52.0546V114.425H34.7574V112.066H33.9418V109.523H38.8399V107.164H39.6555V102.446H42.1221L42.9215 80.1124H43.8905L44.69 102.446Z" fill="#C6D2E0"/>
<path d="M167.512 113.886H163.566V103.305L161.121 113.513L161.031 113.886H150.236V98.3319H167.512V113.886Z" fill="#C6D2E0"/>
<path d="M214.381 113.886H210.436V103.305L207.99 113.513L207.9 113.886H197.106V98.3319H214.381V113.886Z" fill="#C6D2E0"/>
<path d="M165.764 88.2443V97.0673H162.648V92.4429L161.275 97.0673H151.984V88.2443H165.764Z" fill="#C6D2E0"/>
<path d="M212.634 88.2443V97.0673H208.935V92.0704L207.452 97.0673H198.853V88.2443H212.634Z" fill="#C6D2E0"/>
<path d="M66.6646 92.6032C67.7333 92.4241 68.5095 92.6688 69.0213 93.1568C69.3537 93.4738 69.5388 93.8632 69.6342 94.2233C70.3182 94.2308 70.8239 94.5107 71.1582 94.9286C71.4024 95.2338 71.535 95.5891 71.5997 95.9098H72.2712C72.539 95.9098 72.7561 96.1272 72.7562 96.3951C72.7562 96.6632 72.5391 96.8805 72.2712 96.8805H64.1194C63.8516 96.8805 63.6345 96.6632 63.6345 96.3951C63.6346 96.1272 63.8516 95.9098 64.1194 95.9098H64.7654C64.753 95.8534 64.7392 95.7971 64.7304 95.741C64.6717 95.3683 64.6774 94.9409 64.7683 94.5229C64.9503 93.6852 65.5074 92.7972 66.6646 92.6032Z" fill="#C6D2E0"/>
<path d="M96.7749 87.0375L96.9057 87.0744L107.631 90.0739L107.667 91.5537H85.7104L85.7436 90.1232L96.6442 87.0744L96.7749 87.0375Z" fill="#C6D2E0"/>
<path d="M232.607 81.888C235.545 81.888 236.906 83.3519 237.317 84.4513C238.924 84.5475 240.083 85.2765 240.872 86.172C241.571 86.9653 241.977 87.8875 242.17 88.6187H243.472C243.74 88.6188 243.957 88.8361 243.957 89.1041C243.957 89.3721 243.74 89.5894 243.472 89.5895H223.673C223.406 89.5895 223.189 89.3721 223.189 89.1041C223.189 88.8361 223.406 88.6188 223.673 88.6187H226.005C225.962 88.1484 226.003 87.7276 226.12 87.3541C226.285 86.8282 226.589 86.4256 226.952 86.1283C227.488 85.6896 228.15 85.4803 228.715 85.4041C228.719 84.7968 228.865 84.0606 229.293 83.4114C229.875 82.5309 230.924 81.888 232.607 81.888Z" fill="#C6D2E0"/>
<path d="M85.8847 83.9925L94.6787 86.4516L85.7701 88.9429L85.8847 83.9925Z" fill="#C6D2E0"/>
<path d="M107.489 84.0409L107.604 88.8927L98.874 86.4507L107.489 84.0409Z" fill="#C6D2E0"/>
<path d="M158.874 52.7228C159.632 52.723 160.278 53.3195 160.278 54.0936C160.278 54.6378 159.958 55.0925 159.505 55.3156L160.329 67.2205C161.383 67.7346 162.115 68.7898 162.115 70.0266C162.115 71.1108 161.552 72.0545 160.703 72.6175L161.164 79.2781H162.976L164.021 87.3304H161.204L160.712 83.5346L160.219 87.3304H153.727L154.772 79.2781H156.583L157.043 72.6184C156.194 72.0554 155.632 71.1106 155.632 70.0266C155.632 68.7902 156.363 67.7348 157.417 67.2205L158.241 55.3156C157.789 55.0924 157.469 54.6374 157.469 54.0936C157.469 53.3193 158.116 52.7228 158.874 52.7228Z" fill="#C6D2E0"/>
<path d="M205.744 52.7228C206.501 52.723 207.147 53.3194 207.147 54.0936C207.147 54.6378 206.827 55.0925 206.374 55.3156L207.198 67.2205C208.253 67.7346 208.985 68.7898 208.985 70.0266C208.985 71.1108 208.422 72.0545 207.573 72.6175L208.034 79.2781H209.846L210.891 87.3304H208.074L207.581 83.5346L207.089 87.3304H200.596L201.641 79.2781H203.452L203.913 72.6184C203.064 72.0554 202.501 71.1106 202.501 70.0266C202.501 68.7902 203.233 67.7348 204.287 67.2205L205.111 55.3156C204.659 55.0924 204.339 54.6374 204.339 54.0936C204.339 53.3193 204.986 52.7228 205.744 52.7228Z" fill="#C6D2E0"/>
<path d="M96.7768 80.7172L96.9076 80.7541L105.977 83.291L96.9076 85.8278L96.7768 85.8648L96.6461 85.8278L87.5755 83.291L96.6461 80.7541L96.7768 80.7172Z" fill="#C6D2E0"/>
<path d="M86.0325 77.713L94.6787 80.1313L85.9179 82.5809L86.0325 77.713Z" fill="#C6D2E0"/>
<path d="M107.342 77.7632L107.455 82.5316L98.874 80.1313L107.342 77.7632Z" fill="#C6D2E0"/>
<path d="M96.7759 74.3969L96.9066 74.4339L105.977 76.9707L96.9066 79.5075L96.7759 79.5445L96.6452 79.5075L87.5727 76.9707L96.6452 74.4339L96.7759 74.3969Z" fill="#C6D2E0"/>
<path d="M86.1793 71.4344L94.6806 73.811L86.0666 76.2199L86.1793 71.4344Z" fill="#C6D2E0"/>
<path d="M107.196 71.4837L107.306 76.1706L98.8721 73.811L107.196 71.4837Z" fill="#C6D2E0"/>
<path d="M96.7768 68.0775L96.9076 68.1145L105.977 70.6513L96.9066 73.1882L96.7759 73.2252L96.6452 73.1882L87.5717 70.6513L96.6461 68.1145L96.7768 68.0775Z" fill="#C6D2E0"/>
<path d="M86.3271 65.1558L94.6787 67.4917L86.2163 69.8579L86.3271 65.1558Z" fill="#C6D2E0"/>
<path d="M107.05 65.2051L107.158 69.8086L98.874 67.4917L107.05 65.2051Z" fill="#C6D2E0"/>
<path d="M107.023 64.0391L96.9066 66.8679L96.7759 66.9049L96.6452 66.8679L86.3545 63.9907L86.3631 63.6134L86.3886 62.5393H106.99L107.023 64.0391Z" fill="#C6D2E0"/>
<path d="M128.131 52.7228C130.026 52.7228 130.973 53.662 131.302 54.4416C132.339 54.536 133.096 55.0344 133.612 55.6389C134.045 56.1452 134.311 56.7251 134.452 57.2097H135.161C135.429 57.2097 135.646 57.427 135.646 57.6951C135.646 57.963 135.429 58.1805 135.161 58.1805H122.351C122.083 58.1805 121.866 57.963 121.866 57.6951C121.866 57.427 122.083 57.2097 122.351 57.2097H123.678C123.659 56.4923 123.927 55.9537 124.358 55.5905C124.691 55.3101 125.089 55.1615 125.446 55.0928C125.468 54.6931 125.574 54.2311 125.84 53.8159C126.25 53.1768 126.987 52.7229 128.131 52.7228Z" fill="#C6D2E0"/>
<path d="M28.231 43.8069C29.2998 43.6277 30.0759 43.8726 30.5877 44.3606C30.9203 44.6777 31.1062 45.0669 31.2015 45.4271C31.8854 45.4346 32.3904 45.7146 32.7247 46.1324C32.9689 46.4376 33.1024 46.7928 33.167 47.1135H33.8386C34.1064 47.1135 34.3235 47.3309 34.3236 47.5989C34.3236 47.867 34.1064 48.0843 33.8386 48.0843H25.6859C25.4182 48.0841 25.2009 47.8668 25.2009 47.5989C25.2009 47.3311 25.4182 47.1138 25.6859 47.1135H26.3328C26.3204 47.0571 26.3066 47.001 26.2978 46.9448C26.2391 46.5721 26.2439 46.1446 26.3347 45.7266C26.5167 44.889 27.0741 44.0011 28.231 43.8069Z" fill="#C6D2E0"/>
<path d="M180.798 23.6155C181.867 23.4364 182.643 23.6811 183.155 24.1692C183.487 24.4863 183.673 24.8756 183.768 25.2357C184.452 25.2432 184.958 25.5231 185.292 25.941C185.536 26.2462 185.669 26.6015 185.733 26.9222H186.405C186.673 26.9222 186.89 27.1395 186.89 27.4075C186.89 27.6756 186.673 27.8929 186.405 27.8929H178.253C177.985 27.8929 177.768 27.6756 177.768 27.4075C177.768 27.1395 177.985 26.9222 178.253 26.9222H178.899C178.887 26.8657 178.873 26.8096 178.864 26.7534C178.805 26.3807 178.811 25.9533 178.902 25.5352C179.084 24.6976 179.641 23.8096 180.798 23.6155Z" fill="#C6D2E0"/>
</svg>
