<svg width="100" height="100" viewBox="0 0 100 100" fill="none" xmlns="http://www.w3.org/2000/svg">
<path d="M6.37149 16.4451L-nan -nanL6.37149 16.4451C35.3519 12.2397 64.6488 12.2397 93.6293 16.4451L-nan -nanL93.6293 16.4451L-nan -nanL93.6293 16.4451C97.0608 37.9869 97.0608 60.1141 93.6293 81.6559L-nan -nanL93.6293 81.6559L-nan -nanL93.6293 81.6559C64.6488 85.8614 35.3519 85.8614 6.37149 81.6559L-nan -nanL6.37149 81.6559L-nan -nanL6.37149 81.6559C2.93997 60.1141 2.93997 37.9869 6.37149 16.4451L-nan -nanL6.37149 16.4451Z" fill="#94A3B8"/>
<path d="M79.747 51.3817C79.747 68.0959 65.8623 81.6454 48.7348 81.6454C31.6072 81.6454 17.7225 68.0959 17.7225 51.3817C17.7225 45.0028 17.7217 35.3548 17.7217 35.3548C17.7217 35.3548 38.1437 13.291 48.7346 13.291C60.8437 13.291 79.7468 20.6523 79.7468 20.6523C79.7468 20.6523 79.747 46.4844 79.747 51.3817Z" fill="white"/>
<path d="M73.418 50.6331C73.418 47.8367 75.8266 45.5698 78.7977 45.5698C81.7689 45.5698 84.1775 47.8367 84.1775 50.6331V55.6964C84.1775 58.4928 81.7689 60.7597 78.7977 60.7597C75.8266 60.7597 73.418 58.4928 73.418 55.6964V50.6331Z" fill="white"/>
<path d="M12.6582 50.6331C12.6582 47.8367 15.0668 45.5698 18.038 45.5698C21.0091 45.5698 23.4177 47.8367 23.4177 50.6331V55.6964C23.4177 58.4928 21.0091 60.7597 18.038 60.7597C15.0668 60.7597 12.6582 58.4928 12.6582 55.6964V50.6331Z" fill="white"/>
<path d="M86.709 10.7593H42.808C28.9532 10.7593 17.7217 22.0938 17.7217 36.0757H61.6227C75.4775 36.0757 86.709 24.7412 86.709 10.7593Z" fill="#64748B"/>
<path fill-rule="evenodd" clip-rule="evenodd" d="M26.7795 46.259C27.831 45.2898 29.4751 45.3502 30.4515 46.394C32.4629 48.5441 35.8912 48.5441 37.9026 46.394C38.8791 45.3502 40.5231 45.2898 41.5746 46.259C42.6262 47.2282 42.6871 48.8601 41.7106 49.9039C37.6433 54.2517 30.7108 54.2517 26.6435 49.9039C25.6671 48.8601 25.728 47.2282 26.7795 46.259Z" fill="#64748B"/>
<path fill-rule="evenodd" clip-rule="evenodd" d="M57.1594 46.259C58.2109 45.2898 59.8549 45.3502 60.8314 46.394C62.8428 48.5441 66.2711 48.5441 68.2825 46.394C69.259 45.3502 70.903 45.2898 71.9545 46.259C73.0061 47.2282 73.0669 48.8601 72.0905 49.9039C68.0232 54.2517 61.0907 54.2517 57.0234 49.9039C56.047 48.8601 56.1078 47.2282 57.1594 46.259Z" fill="#64748B"/>
<path d="M52.5315 66.772C52.5315 68.6945 50.8313 70.253 48.734 70.253C46.6367 70.253 44.9365 68.6945 44.9365 66.772C44.9365 64.8495 46.6367 63.291 48.734 63.291C50.8313 63.291 52.5315 64.8495 52.5315 66.772Z" fill="#E05353"/>
</svg>
